<svg id="icon-apostrophe2" xmlns="http://www.w3.org/2000/svg" viewBox="0 0 58 38">
  <defs>
    <style>
      .cls-1 {
        fill: #c64a4a;
      }
    </style>
  </defs>
  <title>icon-apostrophe2</title>
  <path id="apostrophe" class="cls-1" d="M11.09,36.48c-3.85,0-8.26-1-9.65-5.07a13.77,13.77,0,0,1-.23-6.57A25.69,25.69,0,0,1,4,16.91c2.66-5,6.61-9.94,11.65-12.73A17.82,17.82,0,0,1,22.38,2a13.29,13.29,0,0,1,4,.1c1.19.24,2.72.56,3.46,1.62a3.51,3.51,0,0,1-.08,3.63c-.75,1.21-2.33,2-3.53,2.66-2.83,1.58-5.55,3.11-6.73,6.31a10.54,10.54,0,0,1,4,11.86C21.83,33.08,16.1,36.48,11.09,36.48ZM47,15c6.1,4,5.48,13.23.77,18a16.11,16.11,0,0,1-9.86,4.64c-3.39.34-7.65-.29-9.62-3.45S27,26.88,27.7,23.6a31.37,31.37,0,0,1,5-11C36.93,6.59,43,1.1,50.66.63c1.93-.11,4.61,0,6.17,1.3,1.38,1.14,1.13,3.46,0,4.67-1.57,1.65-4,2.49-5.85,3.73A9.32,9.32,0,0,0,47,15Z"/>
</svg>
