<svg id="CodeChallenge-icon-apostrophe" xmlns="http://www.w3.org/2000/svg" xmlns:xlink="http://www.w3.org/1999/xlink" viewBox="0 0 51 40">
  <defs>
    <style>
      .cls-1 {
        fill: #fff;
      }

      .cls-1, .cls-3 {
        fill-rule: evenodd;
      }

      .cls-2 {
        mask: url(#mask);
      }

      .cls-3 {
        fill: #09aaa4;
      }

      .cls-4 {
        mask: url(#mask-2-2);
      }
    </style>
    <mask id="mask" x="27.85" y="0" width="23.15" height="39.84" maskUnits="userSpaceOnUse">
      <g id="mask-2">
        <polygon id="path-1" class="cls-1" points="51 0 27.85 0 27.85 39.84 51 39.84 51 0"/>
      </g>
    </mask>
    <mask id="mask-2-2" x="0.92" y="0" width="23.15" height="39.84" maskUnits="userSpaceOnUse">
      <g id="mask-4">
        <polygon id="path-3" class="cls-1" points="24.07 0 0.93 0 0.93 39.84 24.07 39.84 24.07 0"/>
      </g>
    </mask>
  </defs>
  <title>Group 7</title>
  <g class="cls-2">
    <path id="right" class="cls-3" d="M47.53,2.66c2-.21,1.9.8,1.57,2,0,0-.3,0-.49,0a4.37,4.37,0,0,1-1.08-2m0,32.18c-.57-.65-1.38-1.1-1.09-2.13.1-.35.65-.44.93-.26.93.6.87,1.4.16,2.39m-4.28-1.18c.11-.65.47-.86,1-.72.69.19,2.82,3.13,2.76,3.82a1.22,1.22,0,0,1-.39.67.57.57,0,0,1-.74-.08c-1.2-1-1.66-2.55-2.6-3.69m-7.58-9a24.49,24.49,0,0,1-3.53-4.51C30,17,30,16.94,30.42,15.16c1.75,2.24,3.44,4.37,5.1,6.53.61.79.5,1.71.18,3m13.44-14.1C46.54,8.44,45.24,6,43.73,3.8c-.32-.46-.58-1,0-1.44s1.25-.59,1.71,0c1.78,2.26,3.69,4.48,3.69,8.2M40.35,3c.92-.66,1.39-.31,1.86.43,1.66,2.61,3.56,5,5.43,7.51.66.87,1.55,1.93.87,3.42a14.36,14.36,0,0,1-2.89-3.17A44.19,44.19,0,0,1,40.35,3m-3.77-.16c1.58-.66,2.31.26,3,1.29A73,73,0,0,0,45.86,13c1.4,1.59,1.78,3.57,2.68,5.34-4.67-4.61-8-10.18-12-15.5M30.23,19.94a1.36,1.36,0,0,1,1.11.74c3.1,4.09,6,8.34,9.7,11.94a23.46,23.46,0,0,1,2.44,3.28c.39.52.83,1.2.34,1.71s-1.34.19-2-.13-.65-.84-1-1.27c-3.15-4.1-5.35-8.87-9-12.63-.5-.52-.87-1.17-1.37-1.68a1.54,1.54,0,0,1-.26-2m.12,3.79a10.18,10.18,0,0,1,4.16,4.89,13.37,13.37,0,0,0,2.29,3.81c1,1.33,2.28,2.48,2.91,4.28-6.7-2.83-10.32-7.85-9.36-13M31.67,5.86c.49-.9-.87-1.22-.77-2,1-.28,1.44.45,1.85,1,2.09,2.59,4.11,5.24,6.19,7.84.94,1.18,1.74,2.52,3.23,3.14-.06-.26-.05-.59-.21-.78-3-3.42-5.58-7.16-8.28-10.8-.32-.42-.86-.85-.25-1.37.4-.34.88-.11,1.25.17a13.87,13.87,0,0,1,3.25,3.28,91.41,91.41,0,0,0,6.82,9.22,14,14,0,0,1,3.15,5.33c-.87-.14-1.23-.8-1.7-1.3a20.61,20.61,0,0,0-4.09-3.82c0,1.24,1.06,1.86,1.77,2.62a9.69,9.69,0,0,1,1.76,3.29,1.14,1.14,0,0,1-1.16-.51C41.21,17.08,38,13,34.68,9c-.94-1.14-1.44-2.72-3.06-3.22-.18.85.42,1.32.88,1.88q4.47,5.48,8.92,11a6.29,6.29,0,0,1,1.65,2.87,3.32,3.32,0,0,1-3.17-1.37c-1.2-1.7-2.56-3.29-3.83-5A1.1,1.1,0,0,0,35,14.6c.48,2.39,3,3.5,3.69,5.85-3.67-.69-3.62-.72-5.48-3.23C32,15.69,31.3,13.9,30,12.47c-.81-.89-.62-1.91-.21-3.07,1.57.82,2.26,2.12,3.14,3.24.61.77,1,1.77,2.1,2a15.46,15.46,0,0,0-4.62-6.45c-1.08-1-1.5-1.9-.79-3.2.84.15,1.21,1,2.05.84m18.1,34a7.25,7.25,0,0,1-.65-5.06,7.63,7.63,0,0,0,.08-2.19c-.09-1.68-.23-1.69-2-1.55-1.35.11-2.57.81-4,.4-4.63-1.28-6.44-4.47-5.28-9.59.18,0,.4-.11.53,0,2.94,1.61,6.31.77,9.37,1.65.47.13,1.11.07,1.14-.42.08-1.29,1.09-2.24,1-3.61a54.06,54.06,0,0,1,.91-13.37,7.54,7.54,0,0,0,.06-.83c.24-3.25.24-3.24-3-4a5,5,0,0,1-2-.73c-1-.82-1.4-.64-2.38.22-1.3,1.15-3.37,1.21-5,.94-3.38-.59-6.5.38-9.73.86-.92.14-.91.76-.91,1.4A37.37,37.37,0,0,0,28,9.14a100.33,100.33,0,0,1,.68,15.58c0,4.72,2.53,7.62,5.68,10.38,3.37,2.94,7.48,4.11,11.79,4.51,1.12.1,2.34-.55,3.61.23"/>
  </g>
  <g class="cls-4">
    <path id="left" class="cls-3" d="M20.6,2.66c2-.21,1.9.8,1.57,2,0,0-.3,0-.49,0a4.46,4.46,0,0,1-1.08-2m0,32.18c-.58-.65-1.39-1.1-1.09-2.13a.65.65,0,0,1,.92-.26c.93.6.87,1.4.17,2.39m-4.29-1.18c.11-.65.47-.86,1-.72.7.19,2.82,3.13,2.76,3.82a1.16,1.16,0,0,1-.39.67.56.56,0,0,1-.73-.08c-1.21-1-1.66-2.55-2.61-3.69m-7.58-9a24.93,24.93,0,0,1-3.53-4.51c-2.18-3.21-2.16-3.22-1.74-5,1.75,2.24,3.44,4.37,5.09,6.53.61.79.5,1.71.18,3m13.44-14.1C19.61,8.44,18.32,6,16.8,3.8c-.31-.46-.58-1,0-1.44s1.25-.59,1.71,0c1.78,2.26,3.7,4.48,3.69,8.2M13.42,3c.92-.66,1.39-.31,1.86.43,1.66,2.61,3.56,5,5.43,7.51.66.87,1.56,1.93.87,3.42A14.3,14.3,0,0,1,18.7,11.2,44.22,44.22,0,0,1,13.42,3M9.66,2.85c1.57-.66,2.3.26,3,1.29A73.09,73.09,0,0,0,18.94,13c1.4,1.59,1.77,3.57,2.67,5.34-4.67-4.61-8-10.18-11.95-15.5M3.31,19.94c.55,0,.84.39,1.1.74,3.1,4.09,6,8.34,9.71,11.94a24.22,24.22,0,0,1,2.43,3.28c.39.52.84,1.2.35,1.71s-1.35.19-2-.13-.66-.84-1-1.27c-3.14-4.1-5.34-8.87-9-12.63-.5-.52-.87-1.17-1.37-1.68a1.55,1.55,0,0,1-.25-2m.12,3.79a10.29,10.29,0,0,1,4.16,4.89,13.15,13.15,0,0,0,2.29,3.81c1,1.33,2.27,2.48,2.91,4.28-6.71-2.83-10.33-7.85-9.36-13M4.75,5.86c.48-.9-.88-1.22-.78-2,1-.28,1.44.45,1.86,1C7.91,7.39,9.93,10,12,12.64c.94,1.18,1.74,2.52,3.24,3.14-.07-.26-.05-.59-.21-.78-3-3.42-5.58-7.16-8.29-10.8-.32-.42-.86-.85-.24-1.37.39-.34.87-.11,1.24.17A13.87,13.87,0,0,1,11,6.28a93,93,0,0,0,6.82,9.22A13.83,13.83,0,0,1,21,20.83c-.87-.14-1.23-.8-1.69-1.3a21,21,0,0,0-4.1-3.82c0,1.24,1.06,1.86,1.78,2.62a9.84,9.84,0,0,1,1.75,3.29,1.12,1.12,0,0,1-1.15-.51C14.29,17.08,11,13,7.75,9,6.81,7.88,6.31,6.3,4.69,5.8c-.17.85.42,1.32.88,1.88q4.47,5.48,8.92,11a6.21,6.21,0,0,1,1.65,2.87A3.33,3.33,0,0,1,13,20.14c-1.19-1.7-2.56-3.29-3.82-5-.3-.39-.59-.67-1.11-.59.47,2.39,3,3.5,3.68,5.85-3.66-.69-3.62-.72-5.48-3.23C5.1,15.69,4.37,13.9,3.07,12.47c-.81-.89-.61-1.91-.21-3.07,1.57.82,2.26,2.12,3.15,3.24.6.77,1,1.77,2.09,2A15.53,15.53,0,0,0,3.49,8.22C2.4,7.21,2,6.32,2.69,5c.85.15,1.22,1,2.06.84m18.1,34a7.31,7.31,0,0,1-.66-5.06,7.63,7.63,0,0,0,.08-2.19c-.09-1.68-.23-1.69-2-1.55-1.34.11-2.57.81-4,.4C11.61,30.16,9.79,27,11,21.85c.18,0,.4-.11.53,0,2.93,1.61,6.3.77,9.37,1.65.46.13,1.1.07,1.13-.42.09-1.29,1.09-2.24,1-3.61a54.06,54.06,0,0,1,.91-13.37A7.54,7.54,0,0,0,24,5.23c.24-3.25.24-3.24-3-4a5.08,5.08,0,0,1-2-.73c-1-.82-1.39-.64-2.37.22-1.31,1.15-3.37,1.21-5,.94-3.39-.59-6.51.38-9.73.86C.94,2.69.94,3.31,1,4a35.88,35.88,0,0,0,.14,5.19,102.86,102.86,0,0,1,.68,15.58c0,4.72,2.53,7.62,5.68,10.38,3.37,2.94,7.48,4.11,11.78,4.51,1.13.1,2.34-.55,3.62.23"/>
  </g>
</svg>
