<svg id="Quote4" xmlns="http://www.w3.org/2000/svg" viewBox="0 0 171 259">
  <defs>
    <style>
      .cls-1 {
        fill: #c64a4a;
      }
    </style>
  </defs>
  <title>Quote4</title>
  <path id="w" class="cls-1" d="M22.5,8.12c1.64,0,2.56-2.3,4.23-2C28,6.38,28.09,8,28.12,9c.09,3.24-1.14,6.62-1.94,9.73-.73,2.87-1.8,5.79-.95,8.76.95,3.3,4.21,4.61,7.41,4.6,3.82,0,7-2.25,9.28-5.16,1.07,2.27,2.76,4.63,5.4,5.08a10.53,10.53,0,0,0,7.89-2.28c4.67-3.69,6-10.42,6.63-16A4.49,4.49,0,0,0,65,10.56c.1-.57.13-1.14-.51-1.3-.8-.21-1.68.66-2.36,1,.17-2.23.1-4.81-1.24-6.7-1.48-2.08-4.65-2.3-6.77-1.09a5.74,5.74,0,0,0-2.22,6.93,7.26,7.26,0,0,0,5.95,4.78c-.82,4-2,9.08-5.38,11.76a4.47,4.47,0,0,1-4.36.91c-1.74-.73-2.68-2.73-3.3-4.39a41.17,41.17,0,0,0,3.2-9.1c.51-2.26,1.26-5.49-.16-7.56s-4.74-2.09-6.68-.86c-2.51,1.6-2.3,5.08-2.19,7.65a44,44,0,0,0,1.55,10.27,11.48,11.48,0,0,1-4,3.55c-1.3.63-3.22,1.06-4.5.17-1.95-1.36-.79-5.26-.46-7.17.3-1.75.67-3.5,1.06-5.24a32.76,32.76,0,0,0,1.12-5.71C33.84,5,32.22,2,28.47,2a7.7,7.7,0,0,0-5.34,2.09A4.09,4.09,0,0,0,22,6.24C21.86,6.74,21.68,8.12,22.5,8.12ZM56.6,6.56c0-1.39,1.28-1.81,1.76-.36A8,8,0,0,1,58.48,10,3.72,3.72,0,0,1,56.6,6.56Zm-12.68,1c1.5,0,1,3.29.93,4.13a22.35,22.35,0,0,1-1.41,5.63,37.61,37.61,0,0,1-.56-6.69C42.89,9.92,42.8,7.52,43.92,7.52Z"/>
  <path id="e" class="cls-1" d="M63.8,25.36c0,2.92,1.19,5.5,4.12,6.46a13.88,13.88,0,0,0,9.24-.75c2.79-1.21,5.68-3.87,5.76-7.13,0-.41,0-1.23-.56-1.26s-1.17.94-1.51,1.28A12.8,12.8,0,0,1,76.59,27a6.82,6.82,0,0,1-5.71,0c-1.2-.66-1.2-1.83-1.2-3,2.79-1.25,6.55-1.88,8.5-4.46a4.11,4.11,0,0,0-2.29-6.57C68.91,11.47,63.8,19.24,63.8,25.36Zm9-9c1.52,0,1.44,1.47.67,2.39S71.1,20.44,70,21.2Q70.76,16.35,72.84,16.36Z"/>
  <path id="dot" class="cls-1" d="M144.78,61.7a4.1,4.1,0,0,0,1.34-4.11c-.29-1.23-1.22-3.49-2.74-3.58s-2.48,2.25-2.77,3.45a6.77,6.77,0,0,0,.87,5.42A5.08,5.08,0,0,0,144.78,61.7Z"/>
  <path id="apostrophe1" class="cls-1" d="M10.86,11.64c1.75,1.28,4.49.43,5.78-1.13s1.27-4.14-.48-5.27c.37-1,1.2-1.42,2.06-1.94.61-.36,1.67-1,1.16-1.88C19,.72,17.65.76,17,.84a6,6,0,0,0-2.44.9,10.52,10.52,0,0,0-3.83,4.71C10.12,7.83,9.37,10.55,10.86,11.64Z"/>
  <path id="apostrophe2" class="cls-1" d="M5.12,11.84c3.06,0,5.74-4.17,2.6-6.2.42-1.15,1.48-1.55,2.44-2.16.67-.43,1.35-1.34.47-2C8.93.34,6.21,1.87,5,3.05,2.74,5.23-.36,11.84,5.12,11.84Z"/>
  <path id="dot-2" data-name="dot" class="cls-1" d="M62,54c-1.53,0-2.44,2.39-2.7,3.61a6.74,6.74,0,0,0,.9,5.27,4.59,4.59,0,0,0,4.74-4C65.11,57.34,64,54,62,54Z"/>
  <path id="apostrophe4" class="cls-1" d="M108.24,217.2a4.27,4.27,0,0,0-3.8,2.39,3.24,3.24,0,0,0,1.16,3.81c-.42,1.15-1.48,1.55-2.45,2.16-.66.43-1.34,1.34-.46,2,1.68,1.17,4.41-.32,5.64-1.46a8.89,8.89,0,0,0,3-6.1C111.34,218.05,110.05,217.2,108.24,217.2Z"/>
  <path id="winning" class="cls-1" d="M131.84,148.64a15.77,15.77,0,0,0,2.48-5.56,19.77,19.77,0,0,0,6-4.28c1.57-1.63,3.22-3.71,3.61-6,.09-.56.3-2.11-.57-2.09s-1.78,1.67-2.22,2.24a32.6,32.6,0,0,1-5.42,5.59c1.21-4.13,2.55-8.3,3.34-12.53a8.34,8.34,0,0,0,.25-2.16,5.38,5.38,0,0,0-1.09-2.36c-1.22-1.75-3.11-1.9-3.82.33-3.35-1.77-7.56-.93-10.43,1.29a13.16,13.16,0,0,0-4.92,8.81,26.86,26.86,0,0,1-3.22,3.09c-.3.23-1,.72-1.38.49s-.24-1-.19-1.33c.42-2.67,1.49-5.16,1.6-7.91.11-2.48-.84-4.53-3.39-5.17a7,7,0,0,0-6.83,1.73c-.45-1-1.18-2.45-2.36-2.72-1.4-.31-2.19,1.45-2.72,2.43a20.25,20.25,0,0,0-2.23,8.63c-1,.94-1.92,2-2.94,2.94-.77.72-2.09,2.09-3.21,1.12-.65-.56-.4-1.61-.26-2.34.26-1.32.64-2.62.93-3.93.52-2.24,1.28-4.86.34-7.08s-2.8-2-4-.16A20.1,20.1,0,0,0,86.85,131c-1.08.94-2,2.07-3.06,3.05-.47.44-2.53,2.42-2.67.8a10.57,10.57,0,0,1,.67-3.21,28.55,28.55,0,0,0,.95-4.68c.21-2.58-.33-5-3.08-5.85a7,7,0,0,0-7.1,1.66c-.45-1-1.18-2.45-2.36-2.72-1.4-.31-2.19,1.45-2.72,2.43a20.25,20.25,0,0,0-2.23,8.63c-1,.94-1.92,2-2.94,2.94-.47.44-2.53,2.42-2.67.8a10.57,10.57,0,0,1,.67-3.21,28.55,28.55,0,0,0,.95-4.68c.21-2.58-.33-5-3.08-5.85a7,7,0,0,0-7.1,1.66c-.45-1-1.18-2.45-2.36-2.72-1.4-.31-2.19,1.45-2.72,2.43a20.25,20.25,0,0,0-2.23,8.63c-1,.94-1.92,2-2.94,2.94-.78.73-1.95,2-3.1,1.19-.75-.51-.53-1.55-.39-2.31.25-1.3.62-2.56.91-3.84.51-2.21,1.32-4.88.46-7.1-.37-1-1.08-2.1-2.27-1.87a2.76,2.76,0,0,0-1.64,1.34c-1.75,2.62-2.35,6.19-2.54,9.27-.69.4-1.14,1.18-1.82,1.62a4.39,4.39,0,0,1-2.44.7,4.19,4.19,0,0,1-1.88-1.72,17.57,17.57,0,0,0,2.74-6.06c.3-1.71.12-3.83-1.86-4.25a4.23,4.23,0,0,0-4.79,2.07c-1,2.11-.71,4.87-.13,7q-2.64,4.88-4,4.88a6.39,6.39,0,0,1-2.4-2c1.62-2,3.36-4.54,3.54-7.23.2-2.89-2.44-4.25-5-4-5.75.63-4.42,7.7-2.85,11.43-.86.82-3,2.7-4.12,1.24-1-1.69-.6-4.14-.72-6,.61-2.16,2.51-8-1.37-7.91-1.17,0-2.58.32-3.2,1.43a7.83,7.83,0,0,0-.62,3.83,45.41,45.41,0,0,0,1.46,9.11c.38,1.54.85,4.17,2.31,5.14.88.58,2.13,0,3-.41a20.71,20.71,0,0,0,4.7-3.47,11.87,11.87,0,0,0,2.84,3.67,2.21,2.21,0,0,0,2.56,0c2.38-1.18,4.17-3.32,5.76-5.39a5.21,5.21,0,0,0,3.9,2.24A5.38,5.38,0,0,0,32.32,135c.23,2.12,1,4.84,3.46,5.13,3.12.36,6.12-1.82,7.86-4.2,0,1.23-.17,3.08.61,4.15.94,1.31,3,.1,4-.52s1.59-1.18,1.41-2.31a26.77,26.77,0,0,1-.78-4.54c.47-2.4,1.67-5.82,3.88-7.17.74-.45,2.05-.66,2.68.12s.16,2.32-.06,3.24c-.63,2.7-2.69,11.25,2.3,11.25.35.35,1.85-.45,2.17-.59a40.68,40.68,0,0,0,3.91-2.09,10.53,10.53,0,0,0,1.36-1.53c0,1.23-.17,3.08.61,4.14.94,1.31,3,.1,4-.52s1.59-1.18,1.41-2.31a26.77,26.77,0,0,1-.78-4.54c.47-2.4,1.67-5.82,3.88-7.17.74-.45,2.05-.66,2.68.12s.16,2.32-.06,3.24c-.63,2.7-2.69,11.25,2.3,11.25.35.35,1.85-.45,2.17-.59a40.68,40.68,0,0,0,3.91-2.09A10.63,10.63,0,0,0,87,135.38c.29,2.11,1.15,4.57,3.61,4.73,3.07.21,5.93-1.84,7.66-4.21,0,1.23-.17,3.08.61,4.15.94,1.31,3,.1,4-.52s1.59-1.18,1.41-2.31a26.77,26.77,0,0,1-.78-4.54c.47-2.4,1.67-5.82,3.88-7.17.74-.45,2-.66,2.68.12s.16,2.32-.06,3.24c-.63,2.7-2.69,11.25,2.3,11.25.35.35,1.85-.45,2.17-.59a40.68,40.68,0,0,0,3.91-2.09c.34-.32.64-.65.92-1,1.71,4.71,8.31,4.86,11.6,1.81-.21.89-.38,1.8-.64,2.68a66.82,66.82,0,0,0-7.83,1.66,3.31,3.31,0,0,0-2.3,5.11C122.14,151.87,129.06,152,131.84,148.64Zm-117.48-19c-.19-.66-1-5.1.76-4.43C16.72,125.78,14.84,128.86,14.36,129.6ZM126,147.88a3.15,3.15,0,0,1-2.28-.85c-.56-.57-.52-1.23.25-1.5a33.71,33.71,0,0,1,5-.89Q127.51,147.88,126,147.88Zm3.68-12.8c-1.15.84-3.26,1.59-4.31.19s-.63-3.51-.19-4.93c1.13-3.69,5.07-6.33,8.78-6.82-.73,2.81-1.55,5.59-2.16,8.44A6.5,6.5,0,0,1,129.68,135.08Z"/>
  <path id="g" class="cls-1" d="M120.32,181.52h-3.38c-1,0-2.65-.32-3.6.12-1.24.57-.48,2,.62,2.06.42,0,.85,0,1.26,0h3.71V191c-3,1.11-7,1.54-10,.1-2.72-1.31-4-4.15-4.29-7s-.09-6.56,1.82-9.06,5.46-3.26,8.52-2.65a12.08,12.08,0,0,1,4.41,2.22c1.69,1.14,2.4-.9,1.22-2.07-2.46-2.46-6.52-3.07-9.82-2.57a10.21,10.21,0,0,0-7.74,5.42,15.89,15.89,0,0,0-1.13,10.08,10.55,10.55,0,0,0,6.38,8,17,17,0,0,0,12-.44c1.2-.42,1.19-1.46,1.19-2.53v-6.83C121.48,182.76,121.6,181.52,120.32,181.52Z"/>
  <path id="apostrophe3" class="cls-1" d="M103.28,219.46c0-3-3.56-3.17-5.56-1.83s-2.85,4.69-.56,6.17a3.31,3.31,0,0,1-1.64,1.7c-.59.35-1.49.67-1.65,1.42-.4,1.84,2.86,1.29,3.74,1A9.67,9.67,0,0,0,103.28,219.46Z"/>
  <path id="l" class="cls-1" d="M95.2,194.17c1.67,0,1.39-1.9,1.39-3V173.37c0-.83.26-2.46-.37-3.12a1.43,1.43,0,0,0-2.42,1.1c0,.34,0,.69,0,1v18.28C93.8,191.85,93.42,194.17,95.2,194.17Z"/>
  <path id="t" class="cls-1" d="M168.81,170h-17c-.74,0-1.57,0-1.76.92-.28,1.35,1,1.46,2,1.46h6.61V191c0,.78-.21,2.16.39,2.77a1.44,1.44,0,0,0,2.44-1.08c0-.28,0-.58,0-.87V172.41h5.2c.69,0,1.39,0,2.08,0A1.19,1.19,0,1,0,168.81,170Z"/>
  <path id="in" class="cls-1" d="M153.36,83.76a11.21,11.21,0,0,0-.56-2.54,10.81,10.81,0,0,1-.28-2.54c.47-2.4,1.67-5.82,3.88-7.17.74-.45,2-.66,2.68.12s.16,2.32-.06,3.24c-.63,2.7-2.69,11.25,2.3,11.25.35.35,1.85-.45,2.17-.59a40.68,40.68,0,0,0,3.91-2.09A9,9,0,0,0,169.82,80c.22-.62.81-2.87,0-3.25s-2,1.56-2.46,2c-.8.82-2.18,2.66-3.4,2.78s-.46-2-.29-2.6c.36-1.4.77-2.8,1-4.22.45-2.51.74-5.76-1.9-7.15a7,7,0,0,0-8.05,1.27c-.46-1-1.18-2.45-2.36-2.72-1.35-.31-2.11,1.32-2.64,2.28a20.3,20.3,0,0,0-2.31,8.78c-.76.7-1.45,1.48-2.18,2.21s-1.64,1.87-2.66,2.12c-2,.5-1.73-1.86-1.48-3.06.45-2.1,1.06-4.17,1.41-6.29.29-1.77.42-3.72-.75-5.24-2.74-3.53-5.09,4.82-5.38,6.23a27.2,27.2,0,0,0-.5,6.86,9.25,9.25,0,0,0,1.22,4.69c2.61,3.83,8.33-.22,10.19-2.76,0,1.34-.27,4.7,1.76,4.74C150.26,86.66,153.36,85.3,153.36,83.76Z"/>
  <path id="h" class="cls-1" d="M145.62,169.86c-2.08,0-1.4,4-1.4,5.32v5.46H129.88c0-3.06.15-6.16,0-9.22-.06-1.1-1.09-2.11-2.2-1.34a1.72,1.72,0,0,0-.56,1.55c0,1.22,0,2.45,0,3.67V192c0,.24,0,.49,0,.74a1.38,1.38,0,0,0,2.73.31,9,9,0,0,0,0-1.64V183h14.34v7.52a7.29,7.29,0,0,0,.16,2.91,1.39,1.39,0,0,0,2.58-.4c0-.2,0-.42,0-.62.08-5.46,0-10.93,0-16.39v-3.8C147,171.23,147.05,169.86,145.62,169.86Z"/>
  <path id="the" class="cls-1" d="M2.12,185.36c0,2.55-.2,7.78,3,8.64,1.64.44,3.47-.28,4.92-1a13,13,0,0,0,4.45-3.6c0,1.45-.16,3.21.73,4.46,1,1.43,2.69.43,3.83-.31,2-1.33,1.24-4.42,1.06-6.46.38-2.57,1.7-6.09,4-7.53a2.36,2.36,0,0,1,2.64-.07c.83.73.35,2.28.14,3.18-.63,2.71-2.82,11.46,2.25,11.46.35.35,1.85-.45,2.17-.59a40.68,40.68,0,0,0,3.91-2.09,11.91,11.91,0,0,0,.86-.9c2.24,5.38,10.61,4.21,14.54,1.63A10,10,0,0,0,53.77,189c.46-.8,1.59-3.23.77-4.1s-2.18,1.38-2.67,1.82a11.3,11.3,0,0,1-4.24,2.58,6.31,6.31,0,0,1-5.17-.42c-1-.69-1-1.81-1-2.91,2.79-1.25,6.55-1.88,8.5-4.46A4.12,4.12,0,0,0,48.1,175c-3-.87-6.28.49-8.41,2.55a14.12,14.12,0,0,0-4,8.64,15.58,15.58,0,0,1-3.3,3c-1.62.86-1.22-1-1-2,.68-2.71,1.67-5.53,1.39-8.37s-2.59-4-5.13-4A7.43,7.43,0,0,0,21,178.64l.6-2.88c1.3-2.51,3.73-5.33,3.2-8.36-.2-1.09-.75-2.82-1.94-3.19-1.52-.48-2.15,1.15-2.67,2.2A51.12,51.12,0,0,0,14.69,185c-.63.49-1,1.21-1.63,1.75a14.38,14.38,0,0,1-2.54,1.83c-.73.44-2.33,1.62-2.88.43s-.34-3.2-.25-4.58a57.9,57.9,0,0,1,.77-6.16l2.1.1a5.86,5.86,0,0,0,2,.08c.62-.25.79-1.45.89-2s.3-1.25-.44-1.36A33.29,33.29,0,0,0,8.88,175l1.64-2.88c-.33-1.06-.55-2.38-1.61-3A1.73,1.73,0,0,0,7,169.2c-1.67,1.22-2.38,4-3,5.8-.72,0-1.44,0-2.16,0-.52.61-1.82,2.91-.66,3.39a6.36,6.36,0,0,0,1.9,0A34.13,34.13,0,0,0,2.12,185.36Zm42.52-7c1.52,0,1.44,1.47.67,2.39-.89,1.07-2.41,1.69-3.55,2.45Q42.56,178.36,44.64,178.36Z"/>
  <path id="r" class="cls-1" d="M84.89,186.15A5.58,5.58,0,0,0,82,183.56a7.46,7.46,0,0,0,5-2.42,7.15,7.15,0,0,0,1.31-5.4c-.5-4.19-4.17-5.67-8-5.71-1.8,0-3.59,0-5.39,0-1.39,0-4.32-.57-4.47,1.41-.09,1.22,0,2.48,0,3.71v7c0,3.48-.24,7.07,0,10.55a1.38,1.38,0,1,0,2.75,0c.06-.82,0-1.67,0-2.49v-6.36a36.69,36.69,0,0,1,5.45.08c2.34.36,3.36,2.53,4.5,4.34s2.07,3.44,3.22,5.08c.58.84,2.09,1.32,2.55,0,.26-.74-.43-1.53-.81-2.12Zm-4.79-4.59H73.23v-9.22a72.15,72.15,0,0,1,8.19.07,4.37,4.37,0,0,1,4.19,5.13C85.33,180.54,82.8,181.56,80.1,181.56Z"/>
  <path id="believe" class="cls-1" d="M4.56,67.2A30.61,30.61,0,0,0,2,76.28c-.28,2.51-.37,5.38,1.31,7.45,3.17,3.9,11.28,3.7,13.3-1.29a4.71,4.71,0,0,0,5.38,0c1.31,3.41,5,4,8.28,3.73,3.6-.29,7.25-1.8,9.26-4.93A7.42,7.42,0,0,0,45.71,86a9.33,9.33,0,0,0,9.12-4.22c.34,2,1.26,4.17,3.55,4.32,2.82.2,5.39-1.52,7.16-3.58,1.49,3.61,5.63,4,9,3.56,3.61-.46,7.53-2.35,9-5.88a16.55,16.55,0,0,0,1.81,5,1.86,1.86,0,0,0,2.37.94c2.87-.78,5.11-3.71,6.83-5.94a5.62,5.62,0,0,0,7.6,1.67c1.58,6,10.39,4.91,14.42,2.47a10.15,10.15,0,0,0,3.3-3.12c.59-.92,1.72-3.21,1-4.29s-2,1.09-2.47,1.52a11.76,11.76,0,0,1-4.33,2.75,6.35,6.35,0,0,1-5.32-.37c-1-.69-1-1.81-1-2.91,2.74-1.23,6.27-1.84,8.3-4.22,1.84-2.14,1.27-5.75-1.55-6.67s-6.28.39-8.42,2.4a14,14,0,0,0-4.1,8.38,4.28,4.28,0,0,1-3.25,1.22c-1.07-.15-1.63-1.18-1.94-2.11,1.17-1.78,2.61-3.77,3-5.91s-.5-3.86-2.67-4.07c-5.12-.49-5,6-4.13,9.34a28.15,28.15,0,0,1-1.79,3C90.79,80,90.15,81,89.28,81a3.1,3.1,0,0,1-1.52-2,38.48,38.48,0,0,1-.24-4.56,16.91,16.91,0,0,0,1-6.21c-.26-2.09-2.88-2-4.35-1.3s-1.72,2.2-1.78,3.62A31.75,31.75,0,0,0,83,77c-2.3,2.08-4.29,4.32-7.6,4.59-1.28.1-3.16-.12-4-1.23A3.84,3.84,0,0,1,70.92,78c2.79-1.25,6.55-1.88,8.5-4.46A4.12,4.12,0,0,0,77.54,67c-3-.87-6.28.49-8.41,2.55a14.12,14.12,0,0,0-4,8.64c-.62.63-1.22,1.27-1.87,1.86a4.58,4.58,0,0,1-2,1.42c-1.5.27-1.71-1.17-1.53-2.26.49-3,1.64-5.84,1.78-8.87.06-1.33-.32-3.49-1.7-4.11a2,2,0,0,0-2.38,1c-2.06,2.71-2.61,6.79-2.75,10.07-1.13,1.15-2,2.44-3.4,3.27a5.86,5.86,0,0,1-4.05.84c-2.66-.65-2.51-3.68-2.51-5.84,2.3-3,5-5.63,7.42-8.5,1.92-2.27,4.83-5.82,3.36-9-1.36-2.93-5.67-1.89-7.81-.57-2.88,1.78-4.74,4.86-6,7.89A32.33,32.33,0,0,0,39,77.43c-1.87,2.13-4.43,4-7.35,4.19-1.25.07-3-.16-3.86-1.23A3.84,3.84,0,0,1,27.36,78c2.79-1.25,6.55-1.88,8.5-4.46A4.12,4.12,0,0,0,34,67c-3-.87-6.28.49-8.41,2.55a14.09,14.09,0,0,0-4,8.56c-.74,1.07-2.33,2.94-3.53,1.3C17,78,17,75.85,16.41,74.17,16,72.91,15,71,13.36,71.53c-1.43.5-2.43,2.48-2.8,3.83,1.52,1.69,2.91,3.4,2,5.81a2.29,2.29,0,0,1-4.13.49c-1.11-1.71-.81-4.32-.64-6.23A26,26,0,0,1,9.56,68c4.06-.28,11-1.18,11.91-6.18a4.58,4.58,0,0,0-3.29-5.32,8,8,0,0,0-7.12,1.61A20.37,20.37,0,0,0,5.64,65c-1.17-.24-2.32-.88-3.52-.88-.86-.07-.44,1.1-.15,1.46A6.73,6.73,0,0,0,4.56,67.2ZM111,70.36c1.52,0,1.44,1.47.67,2.39s-2.41,1.69-3.55,2.45Q108.88,70.35,111,70.36Zm-36.88,0c1.52,0,1.44,1.47.67,2.39s-2.41,1.69-3.55,2.45Q72,70.35,74.08,70.36ZM47.74,63c.59-1,1.5-2.58,2.77-2.84,1.6-.33.82,2,.42,2.72a27.32,27.32,0,0,1-2.79,3.65,48.25,48.25,0,0,0-2.94,4A23,23,0,0,1,47.74,63ZM30.52,70.36c1.52,0,1.44,1.47.67,2.39s-2.41,1.69-3.55,2.45Q28.44,70.35,30.52,70.36ZM13.6,61.6c1-.93,3.49-2.63,3.56-.08-.14,2.85-4.39,3.82-6.56,4.2A16.7,16.7,0,0,1,13.6,61.6Z"/>
  <path id="dot-3" data-name="dot" class="cls-1" d="M94.24,108c-1.53,0-2.44,2.39-2.7,3.61a6.74,6.74,0,0,0,.9,5.27,4.59,4.59,0,0,0,4.74-4C97.31,111.34,96.19,108,94.24,108Z"/>
  <path id="dot-4" data-name="dot" class="cls-1" d="M39.64,108c-1.53,0-2.44,2.39-2.7,3.61a6.74,6.74,0,0,0,.9,5.27,4.59,4.59,0,0,0,4.74-4C42.71,111.34,41.59,108,39.64,108Z"/>
  <path id="period" class="cls-1" d="M85.16,241.76c-2.76,0-4.93,2.3-5.88,4.72,1.3,2.64,4.21,3.66,6.3,1.22C86.77,246.31,88.37,241.76,85.16,241.76Z"/>
  <path id="way" class="cls-1" d="M77.52,238.68c-.61,0-1.18,1-1.53,1.36-.63.75-1.27,1.5-1.94,2.23a35.8,35.8,0,0,1-4.13,3.85c1.12-3.73,2.26-7.49,3.06-11.31a12.29,12.29,0,0,0,.42-2.76c0-1.46-1.5-4-3.12-4-1.85.07-2.18,2.91-2.61,4.26-.77,2.47-1.4,5-2,7.5a6.38,6.38,0,0,1-2,3.3,3,3,0,0,1-3,.16c-1.17-.89-.18-3.75.08-4.88.63-2.64,1.75-5.25,1.13-8-.56-2.48-3.67-2.11-5.31-.84l-1.14,9.35c-1.26,1.08-2.31,2.39-3.58,3.46-.41.34-1.45,1.4-2.09,1.16-.9-.32-.71-2.64-.71-3.29a29.63,29.63,0,0,1,.32-5.16A28,28,0,0,0,51,231.88c0-1.28-1.25-2.51-2.29-3.08-1.21-.67-2.28-.59-2.91.72-3.07-1.69-7.29-.25-9.79,1.79a13.08,13.08,0,0,0-4.59,8.25A4.75,4.75,0,0,1,28,241.08a4.19,4.19,0,0,1-1.88-1.72,17.57,17.57,0,0,0,2.74-6.06c.3-1.71.12-3.83-1.86-4.25a4.23,4.23,0,0,0-4.79,2.07c-1,2.11-.71,4.87-.13,7q-2.64,4.88-4,4.88a6.39,6.39,0,0,1-2.4-2c1.62-2,3.36-4.54,3.54-7.23.2-2.89-2.44-4.25-5-4-5.75.63-4.42,7.7-2.85,11.43-.86.82-3,2.7-4.12,1.24-1-1.69-.6-4.14-.72-6,.61-2.16,2.51-8-1.37-7.91-1.17,0-2.58.32-3.2,1.43a7.83,7.83,0,0,0-.62,3.83,45.41,45.41,0,0,0,1.46,9.11c.38,1.54.85,4.17,2.31,5.14.88.58,2.13,0,3-.41a20.71,20.71,0,0,0,4.7-3.47,11.87,11.87,0,0,0,2.84,3.67,2.21,2.21,0,0,0,2.56,0c2.38-1.18,4.17-3.32,5.76-5.39a5.45,5.45,0,0,0,7.42,1.33c.7,3,3.44,4.58,6.39,4.51a8,8,0,0,0,6.87-3.92c.34,1.74,1.06,3.8,3.15,3.71a10.27,10.27,0,0,0,6.58-3.38c.73,2.38,3.3,3.08,5.53,3.11a6.54,6.54,0,0,0,5.54-2.76c-.13.69-.39,1.84-.76,3.44-3,.73-6.53.91-9.25,2.46s-1.87,5,.35,6.64a8.2,8.2,0,0,0,8,.6c2.77-1.31,3.72-4.43,4.53-7.14a19.9,19.9,0,0,0,7.15-5.54,12.41,12.41,0,0,0,2.28-3.89C78,241.14,78.53,238.68,77.52,238.68ZM14.36,237.6c-.19-.66-1-5.1.76-4.43C16.72,233.78,14.84,236.86,14.36,237.6Zm30,1.68c-.57,2-1.94,4.23-4.17,4.68-2,.41-3-.94-3.07-2.85a9.67,9.67,0,0,1,8-9.51A32.17,32.17,0,0,0,44.32,239.28ZM60,255.88c-1,.05-2.64-.58-2.64-1.76,0-.81,1.81-.88,2.28-.94,1.26-.18,2.51-.34,3.76-.58C62.39,254.79,61.25,255.88,60,255.88Z"/>
</svg>
