<svg id="Quote2" xmlns="http://www.w3.org/2000/svg" viewBox="0 0 250 106">
  <defs>
    <style>
      .cls-1 {
        fill: #c64a4a;
      }
    </style>
  </defs>
  <title>quote2</title>
  <path id="b" class="cls-1" d="M58.83,12V20c0,.59-.12,1.42.33,1.87a1.24,1.24,0,0,0,2.1-.9c0-.52,0-1.06,0-1.59a5.49,5.49,0,0,0,5.93,2.81,6.27,6.27,0,0,0,4.94-4.26C73.77,13.33,71.73,7,66.18,7a5.27,5.27,0,0,0-4.92,2.88c0-2.6.13-5.23,0-7.82,0-.66-.18-1.22-.93-1.37a1.21,1.21,0,0,0-1.5,1.16c0,.57,0,1.18,0,1.75ZM65.7,9.07c6.1,0,6,11.13,0,11.13S59.65,9.07,65.7,9.07Z"/>
  <path id="n" class="cls-1" d="M44.88,51.79a13,13,0,0,0,0-1.53,1.22,1.22,0,0,0-2.07-.84c-.5.5-.33,1.55-.33,2.19v8.18c0,1.1-.58,5.19,1.74,4.28.89-.35.69-1.53.69-2.3V57.92c0-2.56-.17-5.7,2.88-6.64,1.78-.55,4-.18,4.62,1.79a10.21,10.21,0,0,1,.24,3.07c0,2.21-.1,4.45,0,6.65a1.23,1.23,0,0,0,2.41.43,12,12,0,0,0,0-2.32c0-2,0-4,0-6.07a6.55,6.55,0,0,0-1.25-4.28,5.15,5.15,0,0,0-4-1.52A5.44,5.44,0,0,0,44.88,51.79Z"/>
  <path id="b-2" data-name="b" class="cls-1" d="M15.55,59.88c1.64-4.55-.4-10.85-6-10.85a5.27,5.27,0,0,0-4.92,2.88c0-2.6.13-5.23,0-7.82,0-.66-.18-1.22-.93-1.37a1.21,1.21,0,0,0-1.5,1.16c0,.57,0,1.18,0,1.75V62c0,.59-.12,1.42.33,1.87a1.24,1.24,0,0,0,2.1-.9c0-.52,0-1.06,0-1.59a5.49,5.49,0,0,0,5.93,2.81A6.27,6.27,0,0,0,15.55,59.88ZM9.12,62.2c-6,0-6-11.13,0-11.13S15.17,62.2,9.12,62.2Z"/>
  <path id="t" class="cls-1" d="M9,103.23c-1.63-.12-3.11-.42-3.43-2.27a14.89,14.89,0,0,1-.08-2.59V92.31c.93,0,4.36.54,4.38-.93s-3.43-1-4.38-1c0-1.18.62-4.58-1.2-4.59s-1.23,3.4-1.23,4.59c-.88,0-3.11-.39-3.09,1s2.23.93,3.09.93c0,2.48,0,5,0,7.45,0,2.29.74,4.36,3.13,5.06a8.51,8.51,0,0,0,2.71.34C10.3,105.08,10.44,103.35,9,103.23Z"/>
  <path id="p" class="cls-1" d="M220.26,49a5.27,5.27,0,0,0-4.92,2.88c0-.53,0-1.09,0-1.62a1.24,1.24,0,0,0-2.24-.69,4.12,4.12,0,0,0-.19,2V67.06a11.63,11.63,0,0,0,0,1.32,1.27,1.27,0,0,0,2.12.85,1.57,1.57,0,0,0,.31-1.19c0-2.23,0-4.47,0-6.71a5.5,5.5,0,0,0,5.95,2.81,6.22,6.22,0,0,0,5-4.3C227.8,55.33,225.76,49,220.26,49Zm-.48,13.17c-6,0-6.05-11.13,0-11.13S225.88,62.2,219.78,62.2Z"/>
  <path id="o" class="cls-1" d="M22.3,91a7.31,7.31,0,0,0-8.51.73c-2.21,2.07-2.65,5.63-1.89,8.45a6.66,6.66,0,0,0,6.61,5A6.8,6.8,0,0,0,25.39,99C25.76,96,25,92.69,22.3,91ZM18.51,103.2c-6.1,0-6.07-11.16,0-11.16S24.62,103.2,18.51,103.2Z"/>
  <path id="l" class="cls-1" d="M232.8,55.21V44.82c0-.29,0-.59,0-.89a1.25,1.25,0,0,0-2.24-.74c-.41.59-.19,1.89-.19,2.55V61.63c0,1-.22,2.52,1.23,2.52s1.2-2.08,1.2-3.11Z"/>
  <path id="w" class="cls-1" d="M7.33,19.39c.2.58.38,1.19.62,1.75a1.41,1.41,0,0,0,2.64.17c.66-1.39,1.06-3,1.58-4.42q2.17-6.1,4.36-12.2l3.07,8.68c.92,2.6,1.64,5.41,2.8,7.91a1.43,1.43,0,0,0,2.56.16,3.61,3.61,0,0,0,.24-.65l1.23-3.47L30.27,6.5l1.31-3.68c.07-.2.16-.41.22-.61C32.2.73,30.08,0,29.64,1.45l-6,17.1c-.86-2.47-1.73-4.94-2.59-7.42l-3-8.65C17.71,1.52,17,0,15.74,1a5.42,5.42,0,0,0-.92,2.11L9.36,18.49,4.55,4.62C4.21,3.64,3.73.68,2.34.67c-2.23,0-.59,3.08-.23,4.07Z"/>
  <path id="l-2" data-name="l" class="cls-1" d="M92.1,14.85v4.78c0,1-.22,2.52,1.23,2.52s1.2-2.08,1.2-3.11V2.82c0-.29,0-.59,0-.89a1.25,1.25,0,0,0-2.24-.74c-.41.59-.19,1.89-.19,2.55Z"/>
  <path id="e" class="cls-1" d="M139.08,20.84a8.09,8.09,0,0,0,6.28,1.21,7.18,7.18,0,0,0,3.47-1.47c.53-.49.91-2-.27-2-.54,0-1.21.55-1.68.78a7.57,7.57,0,0,1-1.81.71,6.39,6.39,0,0,1-3.36-.18c-2.07-.73-2.79-2.82-2.9-4.85H146c.8,0,1.62.06,2.42,0,1.91-.13.91-3.42.42-4.53-1.8-4.15-7.63-4.62-10.56-1.4S135.63,18.26,139.08,20.84Zm4.23-11.92c2.69,0,4,2.11,4.05,4.59h-8.49C139.11,11,140.62,8.92,143.31,8.92Z"/>
  <path id="b-3" data-name="b" class="cls-1" d="M121.66,11.92l2.73,5.9a34.89,34.89,0,0,0,1.57,3.4,1.48,1.48,0,0,0,2.66,0c.18-.33.31-.69.47-1l2.4-5.17q1.23-2.62,2.44-5.25c.17-.36.38-.73.52-1.11a1.13,1.13,0,0,0-2.09-.84l-5,11.19-4.54-10.2c-.16-.34-.28-.73-.47-1-.73-1.23-2.7-.53-2.18.88C120.56,9.77,121.16,10.85,121.66,11.92Z"/>
  <path id="h" class="cls-1" d="M167.1,97.69a18.19,18.19,0,0,0-.19-3.83,4.74,4.74,0,0,0-5-3.83,5.46,5.46,0,0,0-4.95,2.7c0-2.58.18-5.23,0-7.8a1.22,1.22,0,1,0-2.43.11c-.05.93,0,1.88,0,2.81,0,5.28-.11,10.56,0,15.84a1.63,1.63,0,0,0,.19,1,1.26,1.26,0,0,0,2.22-.44,15.44,15.44,0,0,0,0-3c0-2.81-.78-7.23,2.34-8.69,2.11-1,4.83-.38,5.29,2.11a18.5,18.5,0,0,1,.11,3.49v4.49c0,1-.19,2.88,1.49,2.55,1.26-.24.94-1.94.94-2.89Z"/>
  <path id="i" class="cls-1" d="M160.8,20.21c0,.89,0,1.94,1.23,1.94s1.2-1.33,1.2-2.27v-4c0-2.38,0-4.77,0-7.15,0-.15,0-.32,0-.47a1.23,1.23,0,0,0-1.9-1c-.67.42-.53,1.3-.53,2v11Z"/>
  <path id="i-2" data-name="i" class="cls-1" d="M99.06,20.21c0,.89,0,1.94,1.23,1.94s1.2-1.33,1.2-2.27v-4c0-2.38,0-4.77,0-7.15,0-.15,0-.32,0-.47a1.23,1.23,0,0,0-1.9-1c-.67.42-.53,1.3-.53,2v11Z"/>
  <path id="e-2" data-name="e" class="cls-1" d="M248.64,60.61c-.54,0-1.21.55-1.68.78a7.57,7.57,0,0,1-1.81.71,6.39,6.39,0,0,1-3.36-.18c-2.07-.73-2.79-2.82-2.9-4.85h7.21c.8,0,1.62.06,2.42,0,1.91-.13.91-3.42.42-4.53-1.8-4.15-7.63-4.62-10.56-1.4s-2.67,9.12.78,11.7a8.09,8.09,0,0,0,6.28,1.21,7.18,7.18,0,0,0,3.47-1.47C249.44,62.09,249.82,60.61,248.64,60.61Zm-5.25-9.69c2.69,0,4,2.11,4.05,4.59H239C239.19,53,240.7,50.92,243.39,50.92Z"/>
  <path id="dot" class="cls-1" d="M100.29,3.94a1.52,1.52,0,1,0,0-3A1.52,1.52,0,1,0,100.29,3.94Z"/>
  <path id="e-3" data-name="e" class="cls-1" d="M107.85,20.84a8.09,8.09,0,0,0,6.28,1.21,7.18,7.18,0,0,0,3.47-1.47c.53-.49.91-2-.27-2-.54,0-1.21.55-1.68.78a7.57,7.57,0,0,1-1.81.71,6.39,6.39,0,0,1-3.36-.18c-2.07-.73-2.79-2.82-2.9-4.85h7.21c.8,0,1.62.06,2.42,0,1.91-.13.91-3.42.42-4.53-1.8-4.15-7.63-4.62-10.56-1.4S104.4,18.26,107.85,20.84Zm4.23-11.92c2.69,0,4,2.11,4,4.59h-8.49C107.88,11,109.39,8.92,112.08,8.92Z"/>
  <path id="dot-2" data-name="dot" class="cls-1" d="M162,3.94a1.52,1.52,0,1,0,0-3A1.52,1.52,0,1,0,162,3.94Z"/>
  <path id="i-3" data-name="i" class="cls-1" d="M139.77,98.91c0-2.38,0-4.77,0-7.15,0-.15,0-.32,0-.47a1.23,1.23,0,0,0-1.9-1c-.67.42-.53,1.3-.53,2v11c0,.89,0,1.94,1.23,1.94s1.2-1.33,1.2-2.27Z"/>
  <path id="dot-3" data-name="dot" class="cls-1" d="M138.57,83.91a1.52,1.52,0,1,0,0,3A1.52,1.52,0,1,0,138.57,83.91Z"/>
  <path id="t-2" data-name="t" class="cls-1" d="M151.05,103.23c-1.63-.12-3.11-.42-3.44-2.27a16,16,0,0,1-.07-2.59V92.31c.93,0,4.36.54,4.38-.93s-3.43-1-4.38-1c0-1.18.62-4.58-1.2-4.59s-1.23,3.4-1.23,4.59c-.88,0-3.11-.39-3.09,1s2.23.93,3.09.93c0,2.48,0,5,0,7.45,0,2.29.74,4.36,3.13,5.06a8.51,8.51,0,0,0,2.71.34C152.35,105.08,152.49,103.35,151.05,103.23Z"/>
  <path id="k" class="cls-1" d="M94.53,97.44l3.32-3A17,17,0,0,0,100.62,92c.83-1.19-.65-2.26-1.7-1.44-.3.25-.58.54-.86.8l-6.29,5.76V87c0-1,.38-3-1-3.23s-1.39,1.35-1.39,2.34V96.51c0,2.45-.2,5,0,7.44a1.22,1.22,0,0,0,2.42.13,10.41,10.41,0,0,0,0-1.58V98l4.88,4.21,2.6,2.24a2.77,2.77,0,0,0,.76.56c1.29.51,1.87-1.15,1-2Z"/>
  <path id="e-4" data-name="e" class="cls-1" d="M30.9,57.07c1.91-.13.91-3.42.42-4.53-1.8-4.15-7.63-4.62-10.56-1.4s-2.67,9.12.78,11.7a8.09,8.09,0,0,0,6.28,1.21,7.18,7.18,0,0,0,3.47-1.47c.53-.49.91-2-.27-2-.54,0-1.21.55-1.68.78a7.57,7.57,0,0,1-1.81.71,6.39,6.39,0,0,1-3.36-.18c-2.07-.73-2.79-2.82-2.9-4.85h7.21C29.28,57.07,30.1,57.13,30.9,57.07Zm-5.13-6.15c2.69,0,4,2.11,4.05,4.59H21.33C21.57,53,23.08,50.92,25.77,50.92Z"/>
  <path id="great" class="cls-1" d="M154.41,57.31c-.48.39-.8.95-1.26,1.36a12.22,12.22,0,0,1-2,1.4c-.66.37-1.55,1-1.94.06A8.38,8.38,0,0,1,149,56.6c.11-1.48.32-3,.57-4.42l1.69.08c.39,0,1.15.21,1.5,0s.55-1.16.61-1.58.14-.71-.29-.89a4,4,0,0,0-1.14,0l-1.83-.05,1.23-2.16c-.34-1.09-1.14-3.24-2.67-2.16-1.26.88-1.79,3-2.22,4.35-.54,0-1.08,0-1.62,0-.43.5-1.37,2.21-.42,2.55a4.7,4.7,0,0,0,1.35,0,32.51,32.51,0,0,0-.74,4.7,7,7,0,0,0-1,1c-.47.48-.95,1-1.46,1.4-.33.3-1.21,1.25-1.75,1.18-.82-.12-.67-2-.67-2.49a21.76,21.76,0,0,1,.24-3.87,21.22,21.22,0,0,0,1.23-2.37c0-1.66-2.93-3.79-3.9-1.77-2.4-1.32-5.66-.11-7.56,1.53a9.91,9.91,0,0,0-3.27,6.27l-.15.16a7.82,7.82,0,0,1-5.37,2.63,3.17,3.17,0,0,1-2.64-1.09A3.18,3.18,0,0,1,118.5,58c2.08-.94,4.93-1.41,6.38-3.34a3.11,3.11,0,0,0-1.32-4.83c-4.79-1.57-9,3.72-9.46,8.32-.22.26-.43.52-.61.71a8.35,8.35,0,0,1-1.81,1.6c-1.57.83-.68-1.72-.5-2.37.44-1.62.94-3.22,1.32-4.86-.37-1.09-.93-3-2.39-2.36-1.23.53-2.43,1.3-3.82.8-.44-1.74-1.89-3.72-3.92-2.88s-.73,3.1.32,4.11a13.81,13.81,0,0,0-1.32,4.27,6.9,6.9,0,0,0-1.29,1.49A24.74,24.74,0,0,1,96,62.89a93.57,93.57,0,0,0,2.51-9.43,3.91,3.91,0,0,0-.94-3.75c-1-1.08-2.14-.69-2.56.64a7.36,7.36,0,0,0-7.28.58,9.66,9.66,0,0,0-4,5.86c-.56,2.39-.63,5.36,1.77,6.78a6.08,6.08,0,0,0,6.88-.86c-.16.67-.29,1.35-.48,2-2.19.48-5,.49-7,1.75s-.84,3.73.63,4.79a6.18,6.18,0,0,0,6.06.37c2-1,2.72-3.31,3.32-5.32a15.21,15.21,0,0,0,6.17-5.08c0,1.53.17,3.22,1.55,3.25a2.3,2.3,0,0,0,2.6-2.43L105.06,59a19.83,19.83,0,0,1,.81-4.44,5.15,5.15,0,0,0,2.67-.21c-1.16,2.31-2.66,7.28-.15,9.29,1,.82,2.64.53,3.74,0a6.75,6.75,0,0,0,2.42-2,4.5,4.5,0,0,0,3.68,2.53c3,.44,6.81-.49,8.86-2.95a4,4,0,0,0,3.13,3,6.12,6.12,0,0,0,6.64-2.81c.19,1,.55,2.33,1.6,2.7,1.26.45,2.93-.39,4-1a8.51,8.51,0,0,0,2.73-2.71,9.54,9.54,0,0,0,.56,2.13c1.35,2.93,4.81,1.41,6.78,0a7.41,7.41,0,0,0,2.73-3.29C155.45,58.39,155.61,56.33,154.41,57.31Zm-33.54-5c1.11,0,1.08,1.06.53,1.75a11,11,0,0,1-2.69,1.88Q119.31,52.27,120.87,52.27ZM87,69.3c-.83-.86.14-1.18.92-1.32,1-.17,2-.31,3-.5C90.24,68.91,88.69,71.09,87,69.3ZM93,58A4.25,4.25,0,0,1,89.73,61c-1.45.15-2-1-2-2.3,0-3.73,3.31-6.61,6.87-7.08C94.07,53.75,93.46,55.84,93,58Zm43.62-.51c-.43,1.52-1.44,3.14-3.09,3.5s-2.34-.75-2.34-2.24a7.27,7.27,0,0,1,6-7A24,24,0,0,0,136.62,57.46Z"/>
  <path id="r" class="cls-1" d="M86,90.09a5.37,5.37,0,0,0-4.86,2.85,12.14,12.14,0,0,0,0-1.81A1.19,1.19,0,0,0,78.77,91a11.7,11.7,0,0,0,0,2.44v8.62c0,.62,0,1.26,0,1.87a1.26,1.26,0,0,0,2.1.9,1.57,1.57,0,0,0,.33-1.22c0-2.32-.06-4.63,0-6.94a4.17,4.17,0,0,1,3.63-4.34c.64-.1,1.69,0,2.16-.47C87.78,91,86.94,90,86,90.09Z"/>
  <path id="dot-4" data-name="dot" class="cls-1" d="M172.74,101.76a1.7,1.7,0,0,0,0,3.39C174.86,105.15,174.85,101.77,172.74,101.76Z"/>
  <path id="p-2" data-name="p" class="cls-1" d="M170.34,49a5.27,5.27,0,0,0-4.92,2.88c0-.53,0-1.09,0-1.62a1.24,1.24,0,0,0-2.24-.69,4.12,4.12,0,0,0-.19,2V67.06a11.63,11.63,0,0,0,0,1.32,1.26,1.26,0,0,0,2.11.85,1.53,1.53,0,0,0,.32-1.19c0-2.23,0-4.47,0-6.71a5.5,5.5,0,0,0,6,2.81,6.22,6.22,0,0,0,5-4.3C177.88,55.33,175.84,49,170.34,49Zm-.48,13.17c-6,0-6.05-11.13,0-11.13S176,62.2,169.86,62.2Z"/>
  <path id="n-2" data-name="n" class="cls-1" d="M180.34,21.22a12,12,0,0,0,0-2.32c0-2,0-4,0-6.07a6.55,6.55,0,0,0-1.25-4.28,5.15,5.15,0,0,0-4-1.52,5.44,5.44,0,0,0-5,2.76,13,13,0,0,0,0-1.53,1.22,1.22,0,0,0-2.07-.84c-.5.5-.33,1.55-.33,2.19v8.18c0,1.1-.58,5.19,1.74,4.28.89-.35.69-1.53.69-2.3V15.92c0-2.56-.17-5.7,2.88-6.64,1.78-.55,4-.18,4.62,1.79a10.21,10.21,0,0,1,.24,3.07c0,2.21-.1,4.45,0,6.65a1.23,1.23,0,0,0,2.41.43Z"/>
  <path id="w-2" data-name="w" class="cls-1" d="M132.06,90.87l-4.14,11-1.94-5c-.71-1.85-1.4-3.72-2.14-5.56-.3-.74-.85-1.48-1.78-1.1-.64.26-.81,1-1,1.55l-3.91,10.15-3.45-9.3c-.33-.89-.66-2.78-2-2.45-1.65.41-.68,2-.29,3q1.9,4.84,3.83,9.69c.42,1,.94,2.85,2.5,2.06.88-.46,1.22-2.19,1.55-3,1.06-2.73,2.13-5.45,3.19-8.18l2.4,6.1,1.26,3.21c.24.61.43,1.46,1,1.83,1.92,1.25,2.75-2.44,3.19-3.55l2.87-7.26c.29-.72.61-1.44.86-2.18a1.42,1.42,0,0,0,.14-1A1.13,1.13,0,0,0,132.06,90.87Z"/>
  <path id="e-5" data-name="e" class="cls-1" d="M84.4,22.05a7.18,7.18,0,0,0,3.47-1.47c.53-.49.91-2-.27-2-.54,0-1.21.55-1.68.78a7.57,7.57,0,0,1-1.81.71,6.39,6.39,0,0,1-3.36-.18c-2.07-.73-2.79-2.82-2.9-4.85h7.21c.8,0,1.62.06,2.42,0,1.91-.13.91-3.42.42-4.53-1.8-4.15-7.63-4.62-10.56-1.4s-2.67,9.12.78,11.7A8.09,8.09,0,0,0,84.4,22.05ZM82.35,8.92c2.69,0,4,2.11,4.05,4.59H77.91C78.15,11,79.66,8.92,82.35,8.92Z"/>
  <path id="e-6" data-name="e" class="cls-1" d="M37.11,20.84a8.09,8.09,0,0,0,6.28,1.21,7.18,7.18,0,0,0,3.47-1.47c.53-.49.91-2-.27-2-.54,0-1.21.55-1.68.78a7.57,7.57,0,0,1-1.81.71,6.39,6.39,0,0,1-3.36-.18c-2.07-.73-2.79-2.82-2.9-4.85h7.21c.8,0,1.62.06,2.42,0,1.91-.13.91-3.42.42-4.53-1.8-4.15-7.63-4.62-10.56-1.4S33.66,18.26,37.11,20.84ZM41.34,8.92c2.69,0,4,2.11,4,4.59H36.9C37.14,11,38.65,8.92,41.34,8.92Z"/>
  <path id="dot-5" data-name="dot" class="cls-1" d="M36.75,45.94a1.52,1.52,0,1,0,0-3A1.52,1.52,0,1,0,36.75,45.94Z"/>
  <path id="o-2" data-name="o" class="cls-1" d="M206.11,50a7.31,7.31,0,0,0-8.51.73c-2.21,2.07-2.65,5.63-1.89,8.45a6.66,6.66,0,0,0,6.61,5A6.8,6.8,0,0,0,209.2,58C209.57,55,208.77,51.69,206.11,50ZM202.32,62.2c-6.1,0-6.07-11.16,0-11.16S208.43,62.2,202.32,62.2Z"/>
  <path id="i-4" data-name="i" class="cls-1" d="M35.52,59v3.24c0,.89,0,1.94,1.23,1.94S38,62.82,38,61.88v-4c0-2.38,0-4.77,0-7.15,0-.15,0-.32,0-.47a1.23,1.23,0,0,0-1.9-1c-.67.42-.53,1.3-.53,2Z"/>
  <path id="e-7" data-name="e" class="cls-1" d="M191.64,57.07c1.91-.13.91-3.42.42-4.53-1.8-4.15-7.63-4.62-10.56-1.4s-2.67,9.12.78,11.7a8.09,8.09,0,0,0,6.28,1.21A7.18,7.18,0,0,0,192,62.58c.53-.49.91-2-.27-2-.54,0-1.21.55-1.68.78a7.57,7.57,0,0,1-1.81.71,6.39,6.39,0,0,1-3.36-.18c-2.07-.73-2.79-2.82-2.9-4.85h7.21C190,57.07,190.84,57.13,191.64,57.07Zm-5.13-6.15c2.69,0,4,2.11,4.05,4.59h-8.49C182.31,53,183.82,50.92,186.51,50.92Z"/>
  <path id="o-3" data-name="o" class="cls-1" d="M72,91a7.31,7.31,0,0,0-8.51.73c-2.21,2.07-2.65,5.63-1.89,8.45a6.66,6.66,0,0,0,6.61,5A6.8,6.8,0,0,0,75,99C75.41,96,74.61,92.69,72,91ZM68.16,103.2c-6.1,0-6.07-11.16,0-11.16S74.27,103.2,68.16,103.2Z"/>
  <path id="w-3" data-name="w" class="cls-1" d="M56.82,90.87l-4.14,11-1.94-5C50,95,49.34,93.15,48.6,91.31c-.3-.74-.85-1.48-1.78-1.1-.64.26-.81,1-1,1.55l-3.91,10.15-3.45-9.3c-.33-.89-.66-2.78-2-2.45-1.65.41-.68,2-.29,3Q38.06,98,40,102.87c.42,1,.94,2.85,2.5,2.06.88-.46,1.22-2.19,1.55-3,1.06-2.73,2.13-5.45,3.19-8.18l2.4,6.1L50.88,103c.24.61.43,1.46,1,1.83,1.91,1.25,2.74-2.44,3.18-3.55l2.87-7.26c.29-.72.61-1.44.86-2.18a1.42,1.42,0,0,0,.14-1A1.13,1.13,0,0,0,56.82,90.87Z"/>
  <path id="g" class="cls-1" d="M66.94,69.57a5.77,5.77,0,0,0,5-3.07,9,9,0,0,0,.67-4V51.23c0-.92.08-2.14-1.23-2.14-1.51,0-1.2,1.8-1.2,2.82-1.32-2.77-4.85-3.5-7.54-2.4s-4,4-4,6.78,1.24,5.67,4,6.78,6.31.39,7.57-2.43A15.43,15.43,0,0,1,70,65c-.78,2.59-3.64,3-6,2.45a10.18,10.18,0,0,1-2.25-.84A4.14,4.14,0,0,0,60.47,66c-1.14-.09-1.09,1.25-.5,1.87C61.56,69.53,64.84,69.75,66.94,69.57Zm-1.27-8c-6.11,0-6.11-10.47,0-10.47S71.71,61.54,65.67,61.54Z"/>
</svg>
