<svg id="Quote3" xmlns="http://www.w3.org/2000/svg" viewBox="0 0 226 151">
  <defs>
    <style>
      .cls-1 {
        fill: #bd8e2f;
      }
    </style>
  </defs>
  <title>Quote3</title>
  <g id="line3">
    <path id="every" class="cls-1" d="M110.84,136.71c-.69,0-1.86,1.89-2.27,2.34a24.19,24.19,0,0,1-2.86,2.68c.76-2.54,1.54-5.09,2.08-7.69a7.65,7.65,0,0,0,.27-1.84c-.06-1-1-2.63-2.11-2.67-1.26,0-1.51,2.07-1.79,3-.51,1.63-.92,3.29-1.31,4.94-.42,1.2-1.63,3.38-3.29,2.41-.94-.56-.23-2.58,0-3.39.42-1.76,1.2-3.55.75-5.39-.4-1.66-2.45-1.44-3.58-.56l-.78,6.39-.1.2c-.72.7-1.39,1.47-2.15,2.13-.57.51-1.61,1.22-1.49,0,.19-2,1.1-4,1.55-5.93-.34-1-.81-2.65-2.13-2.13-1.14.44-2.17,1.19-3.46.73-.39-1.58-1.75-3.41-3.58-2.57s-.59,2.78.34,3.67a11.81,11.81,0,0,0-1.21,3.93c-1.64,1.4-3,3-5.29,3.14a3.22,3.22,0,0,1-2.54-.79,2.42,2.42,0,0,1-.35-1.69c1.84-.83,4.29-1.24,5.63-2.89a2.81,2.81,0,0,0-.95-4.42,5.9,5.9,0,0,0-5.54,1.34,9.32,9.32,0,0,0-3,5.9c-1.25,1.16-2.92,1.11-3.5-.6a11.36,11.36,0,0,0,2-4c.23-1.45-.42-2.68-2-2.76-3.33-.16-3.21,4.09-2.62,6.32-.42.8-1.39,3.16-2.52,3.16a2.14,2.14,0,0,1-1-1.33,26.37,26.37,0,0,1-.16-3.08c.34-1.21.91-3,.63-4.25s-2-1.3-3-.78c-2.06,1.06-1,5.05-.69,6.75-1.58,1.42-3,3-5.26,3.11a3.24,3.24,0,0,1-2.54-.79,2.48,2.48,0,0,1-.35-1.69c2.31-1,6.5-1.74,6.31-5s-4.45-2.73-6.38-1.5a9.18,9.18,0,0,0-3.88,8c.16,2.87,2.41,4.16,5.1,4.1,2.86-.07,6.21-1.22,7.41-4.09.32,1.36.83,4.58,2.81,4.05s3.46-2.51,4.62-4a3.79,3.79,0,0,0,5.13,1.13c1.34,5.07,9.5,2.91,11.78-.18,0,1.41-.2,3.64,1.8,3.33a2,2,0,0,0,1.87-2c0-.89-.11-1.77-.13-2.66a16.43,16.43,0,0,1,.71-4.22,4.58,4.58,0,0,0,2.41-.19c-1.06,2.12-2,5.47-.7,7.67,1.4,2.35,4.55.67,5.84-.86.62,1.42,2.36,1.82,3.77,1.8a4.36,4.36,0,0,0,3.61-1.86c-.09.47-.26,1.24-.51,2.32-2,.5-4.6.6-6.41,1.76s-1,3.41.47,4.44a5.57,5.57,0,0,0,5.24.4c2-.85,2.62-3,3.19-4.87a13.42,13.42,0,0,0,4.9-3.84,8.41,8.41,0,0,0,1.45-2.47C111.12,138.41,111.54,136.71,110.84,136.71Zm-33.21-4.27c.94,0,1,.86.53,1.5a8.68,8.68,0,0,1-2.48,1.77Q76.22,132.44,77.63,132.44Zm-24.9,0c1,0,1,.86.54,1.5a8.82,8.82,0,0,1-2.48,1.77C51.15,133.53,51.8,132.44,52.73,132.44ZM99,148.32c-.66,0-1.78-.39-1.78-1.19s3.59-.93,4.08-1C100.62,147.58,99.86,148.32,99,148.32Z"/>
    <path id="day" class="cls-1" d="M167.51,136.71c-.69,0-1.85,1.89-2.26,2.34a25.09,25.09,0,0,1-2.87,2.68c.76-2.54,1.54-5.09,2.08-7.69a7.18,7.18,0,0,0,.27-1.84c-.06-1-1-2.63-2.11-2.67-1.26,0-1.5,2.07-1.79,3-.5,1.63-.92,3.29-1.31,4.94-.42,1.2-1.63,3.38-3.28,2.41-1-.56-.24-2.58-.05-3.39.42-1.76,1.2-3.55.75-5.39-.4-1.66-2.45-1.44-3.58-.56l-.77,6.31c-.86.74-1.57,1.63-2.45,2.36-.25.21-1,.93-1.38.76-.6-.24-.47-1.77-.47-2.23a19.31,19.31,0,0,1,.21-3.48,18.69,18.69,0,0,0,1.11-2.13c0-1.49-2.63-3.41-3.51-1.59-2-1.12-4.84-.2-6.52,1.14a8.78,8.78,0,0,0-3.19,5.66,12.43,12.43,0,0,1-2.76,2.46c-.81.43-1-.26-1.09-1a26.67,26.67,0,0,1,1.25-8.85c.86-1.26,1.88-2.54,2-4.13.08-1.11-1-3.39-2.4-2.85-.94.36-1.5,1.91-1.84,2.76a29.71,29.71,0,0,0-1.33,4.71,6.81,6.81,0,0,0-6.19,1.14,8.89,8.89,0,0,0-3.38,6c-.31,2.37.29,4.89,2.93,5.52a5.6,5.6,0,0,0,6-2.43c.23,1.26.78,2.51,2.24,2.42a7.09,7.09,0,0,0,4.63-2.59,4.13,4.13,0,0,0,4.33,2.73,5.35,5.35,0,0,0,4.54-2.64c.22,1.16.69,2.51,2.07,2.51a6.69,6.69,0,0,0,4.49-2.31c.48,1.6,2.18,2.09,3.68,2.12a4.46,4.46,0,0,0,3.8-1.86c-.09.47-.26,1.24-.52,2.32-2,.5-4.59.6-6.4,1.76s-1,3.41.47,4.44a5.55,5.55,0,0,0,5.23.4c2-.85,2.62-3,3.19-4.87a13.42,13.42,0,0,0,4.9-3.84,8.2,8.2,0,0,0,1.45-2.47C167.8,138.41,168.21,136.71,167.51,136.71Zm-38.18.57a3.91,3.91,0,0,1-3,3c-1.43.17-1.86-1-1.85-2.22a6.54,6.54,0,0,1,5.4-6.16A36.46,36.46,0,0,0,129.33,137.28Zm15.77-.17c-.39,1.38-1.31,2.86-2.81,3.16s-2.06-.7-2.08-2a6.54,6.54,0,0,1,5.43-6.32A21.63,21.63,0,0,0,145.1,137.11Zm10.59,11.21c-.67,0-1.79-.39-1.79-1.19s3.59-.93,4.08-1C157.3,147.58,156.53,148.32,155.69,148.32Z"/>
    <path id="period" class="cls-1" d="M172.67,138.79c-1.86,0-3.33,1.55-4,3.18.82,1.66,2.69,2.49,4.11,1C173.67,142.05,174.94,138.79,172.67,138.79Z"/>
  </g>
  <g id="line1-2">
    <path id="r" class="cls-1" d="M205.74,96a5,5,0,0,0-4.62,2.88,10.87,10.87,0,0,0,0-1.51,1.79,1.79,0,0,0-2.57-1.21c-1.1.48-1,1.61-1,2.59v8.16c0,.8,0,1.6,0,2.4a1.72,1.72,0,0,0,1,1.67,1.94,1.94,0,0,0,2.69-1.09,12.86,12.86,0,0,0,.06-3.1c0-1.21,0-2.41,0-3.62a3.67,3.67,0,0,1,3.6-3.89c.85-.09,2-.07,2.38-1A1.57,1.57,0,0,0,205.74,96Z"/>
    <path id="e" class="cls-1" d="M194.49,103.05c0-3.14-1.6-6.16-4.84-6.9a7.09,7.09,0,0,0-8,3.62,8.87,8.87,0,0,0,.44,8.49c1.71,2.48,4.91,3.32,7.78,2.87,1.3-.21,3.71-.72,4.35-2a1.56,1.56,0,0,0-.43-1.94c-.6-.38-1.33,0-1.88.32a6.64,6.64,0,0,1-5.15.61c-1.56-.6-2.12-2.18-2.25-3.73h8.26C193.69,104.34,194.49,104.22,194.49,103.05Zm-10-.72c.19-2,1.27-3.64,3.39-3.72s3.32,1.66,3.39,3.72Z"/>
    <path id="in" class="cls-1" d="M225.31,66.38c-.44,0-.91.67-1.17.94-.56.57-1.11,1.15-1.68,1.7s-2.08,2.35-2.83,1.74.19-2.41.36-3.07a32.06,32.06,0,0,0,.92-4.22c.27-2.33.08-4.84-2.43-5.79a6.53,6.53,0,0,0-6.93,1.41c-.42-.91-1.08-2.25-2.17-2.51-1.24-.3-1.94,1.18-2.43,2.06a18.71,18.71,0,0,0-2.16,8.16c-.72.66-1.37,1.4-2.06,2.09s-1.56,1.79-2.52,2c-1.84.3-1.49-1.78-1.26-2.87.42-2,1-3.93,1.32-5.94.25-1.61.35-3.44-.77-4.78-2.57-3.08-4.66,4.52-4.93,5.84a24.7,24.7,0,0,0-.45,6.42,8.19,8.19,0,0,0,1.19,4.35c2.47,3.38,7.65-.32,9.36-2.65a7.8,7.8,0,0,0,.46,3.68c.77,1.38,2.59.36,3.59-.2.85-.48,1.66-1.07,1.54-2.12-.18-1.49-.76-2.81-.75-4.34C210,66,211,63,213,61.65a2.09,2.09,0,0,1,2.5,0c.65.69.25,2,.07,2.82-.58,2.52-2.65,10.66,2.06,10.66.33.33,1.71-.41,2-.54a38.27,38.27,0,0,0,3.63-1.94,8.2,8.2,0,0,0,2.3-3.38C225.72,68.78,226.25,66.38,225.31,66.38Z"/>
    <path id="w" class="cls-1" d="M18.67,70.34c1,2.14,2.62,4.37,5.14,4.72A9.89,9.89,0,0,0,31,72.89c4.28-3.43,5.51-9.61,6.08-14.76a4.22,4.22,0,0,0,2.85-2.82c.13-.6.19-1.23-.53-1.35s-1.47.62-2.09.91c.15-2,.09-4.35-1.08-6.09-1.34-2-4.24-2.25-6.26-1.16a5.29,5.29,0,0,0-2.18,6.3,6.75,6.75,0,0,0,5.56,4.58c-.76,3.68-1.88,8.39-5,10.87a4.13,4.13,0,0,1-4,.85c-1.61-.67-2.49-2.53-3.06-4.06,1.7-3.47,7.36-16.87-.48-16.91A4.6,4.6,0,0,0,17,50.78a7.32,7.32,0,0,0-1.16,4.75,42.14,42.14,0,0,0,1.48,11c-1.52,2-4.87,5.13-7.67,3.54-2-1.11-1-4.57-.68-6.33.55-3.29,1.64-6.53,2-9.82.33-2.85-.62-6.21-3.87-6.62C4.4,47,.35,48.41.14,51.63,0,54,2.05,52.36,3,51.66c1.12-.81,2.28-.8,2.7.66.82,2.79-.54,6.24-1.22,8.94S2.62,66.88,3,69.7c.47,3.55,3.32,5.31,6.74,5.41C13.42,75.21,16.45,73.14,18.67,70.34ZM32.25,51.47c0-1.29,1.18-1.67,1.62-.33A7.47,7.47,0,0,1,34,54.69,3.45,3.45,0,0,1,32.25,51.47Zm-11.73.89c2.41,0,0,8-.45,9C19.89,60.29,18.53,52.36,20.52,52.36Z"/>
    <path id="dot" class="cls-1" d="M202.35,52.52a3.81,3.81,0,0,0,1.19-4c-.33-1.11-1.18-3.09-2.57-3.09s-2.14,2-2.43,3a6.29,6.29,0,0,0,.76,5.19A4.7,4.7,0,0,0,202.35,52.52Z"/>
    <path id="g" class="cls-1" d="M30.28,96c-1.59,0-1.87,1.23-1.87,2.52-1.42-2.66-5.1-3.18-7.66-2s-3.71,4-3.71,6.71A7.19,7.19,0,0,0,20.76,110c2.56,1.22,6.23.69,7.65-2a9.9,9.9,0,0,1-.32,3.8c-.76,1.84-2.89,2.12-4.65,1.9a15.5,15.5,0,0,1-3.4-1.09c-1.05-.38-2.12-.15-2.07,1.21.09,2.19,3.91,2.68,5.51,2.79,2.23.15,4.77-.08,6.55-1.58a6.89,6.89,0,0,0,2.11-5.4c0-2.13,0-4.27,0-6.4V98.81C32.14,97.5,32,96,30.28,96ZM27.41,106.5a3.88,3.88,0,0,1-5.76-.2,5.45,5.45,0,0,1,.17-6.25,3.87,3.87,0,0,1,5.75.2A5.51,5.51,0,0,1,27.41,106.5Z"/>
    <path id="dot-2" data-name="dot" class="cls-1" d="M127.21,52.52a3.81,3.81,0,0,0,1.18-4c-.33-1.11-1.18-3.09-2.57-3.09s-2.14,2-2.43,3a6.32,6.32,0,0,0,.76,5.19A4.72,4.72,0,0,0,127.21,52.52Z"/>
    <path id="e-2" data-name="e" class="cls-1" d="M38.91,68.86c0,2.68,1.08,5.06,3.76,6a12.82,12.82,0,0,0,8.54-.65c2.58-1.11,5.17-3.49,5.37-6.45,0-.41.08-1.29-.51-1.34s-1.15.94-1.46,1.25a11.63,11.63,0,0,1-4,2.82,6.35,6.35,0,0,1-4.86.06c-1.31-.59-1.38-1.67-1.38-3,2.57-1.16,6.06-1.74,7.86-4.12a3.8,3.8,0,0,0-2.31-6.11C43.51,56.23,38.91,63.21,38.91,68.86Zm8.36-8.33c1.25,0,1.37,1.13.76,2-.76,1.12-2.33,1.73-3.43,2.46C45.1,62,46,60.53,47.27,60.53Z"/>
    <path id="tt" class="cls-1" d="M178.17,108.39c-1.09-.08-2.25-.15-2.68-1.35a7.24,7.24,0,0,1-.16-2.37V99.15c1.26,0,4.22.53,4.22-1.41s-3-1.41-4.22-1.41c0-1.61.54-4.52-1.86-4.53s-1.89,2.91-1.89,4.53c-1.09,0-2.93-.3-3.14,1.16-.24-1.66-3-1.16-4.18-1.16,0-1.61.54-4.52-1.86-4.53s-1.89,2.91-1.89,4.53c-1.17,0-3.18-.28-3.18,1.41s2,1.41,3.18,1.41v5.44c0,2.18.13,4.52,2.23,5.74a7.73,7.73,0,0,0,3.57.82,2.29,2.29,0,0,0,2.08-.67,1.32,1.32,0,0,0-.42-1.88c-1-.57-2.33.07-3.21-.94a3.45,3.45,0,0,1-.5-2.36V99.15c1.19,0,3.94.5,4.18-1.16.21,1.46,2.05,1.16,3.14,1.16v4a18.46,18.46,0,0,0,.19,4.27c.53,2.25,2.37,3.36,4.57,3.6a4.3,4.3,0,0,0,2.75-.24C180.4,110,179.43,108.47,178.17,108.39Z"/>
    <path id="b" class="cls-1" d="M137.35,96.9c-2.52-1.59-6.54-1.22-8.07,1.56,0-2.22,0-4.44,0-6.66a2.63,2.63,0,0,0-.19-1.24,2.08,2.08,0,0,0-3-.38c-.62.57-.52,1.38-.52,2.13v15.33c0,.58,0,1.17,0,1.74a1.85,1.85,0,0,0,2.71,1.6c1-.45,1-1.43,1-2.35,2.19,4.09,8.2,3,10.2-.64C141.3,104.59,140.84,99.11,137.35,96.9Zm-1.62,10.17a3.66,3.66,0,0,1-5.82-.37,6.52,6.52,0,0,1,.28-6.61,3.73,3.73,0,0,1,5.83.38A6.5,6.5,0,0,1,135.73,107.07Z"/>
    <path id="n" class="cls-1" d="M90.22,96a5.57,5.57,0,0,0-4.87,2.55,4.75,4.75,0,0,0-.07-1.36,1.85,1.85,0,0,0-2.33-1c-1.07.3-1.25,1.21-1.25,2.16v6.29c0,1.6-.09,3.22,0,4.81a1.7,1.7,0,0,0,1.08,1.69,2,2,0,0,0,2.48-.8,5.89,5.89,0,0,0,.19-2.44,32.58,32.58,0,0,1,.08-6.09A3.49,3.49,0,0,1,89.66,99c1.67.29,2,1.79,2,3.27,0,2,0,3.95,0,5.92,0,.84-.15,1.89.52,2.52a1.92,1.92,0,0,0,3.23-1.43c.1-2.21,0-4.44,0-6.65a9.81,9.81,0,0,0-.59-4A4.7,4.7,0,0,0,90.22,96Z"/>
    <path id="believe" class="cls-1" d="M179.88,66.38c-.54,0-1,.79-1.36,1.14a14.48,14.48,0,0,1-1.8,1.61,8.87,8.87,0,0,1-4,1.76,5.12,5.12,0,0,1-3.93-.8,3,3,0,0,1-.68-2.53c2.53-1.14,5.8-1.7,7.68-3.9,1.74-2,1.12-5.42-1.57-6.21s-5.63.39-7.59,2.19a13,13,0,0,0-3.86,7.82,4,4,0,0,1-3,1.13c-1-.15-1.49-1.1-1.78-2a16.54,16.54,0,0,0,2.68-5.19c.41-1.89-.26-3.82-2.38-4-4.75-.49-4.67,5.49-3.85,8.64a30,30,0,0,1-1.57,2.69c-.41.61-1,1.64-1.87,1.64a2.89,2.89,0,0,1-1.41-1.82,37,37,0,0,1-.22-4.22c.48-1.71,1.16-4,.87-5.77s-2.65-1.81-4-1.17-1.56,2-1.63,3.23a29,29,0,0,0,.59,6.08c-2.12,1.91-3.95,4-7,4.23a4.63,4.63,0,0,1-3.65-1,3.35,3.35,0,0,1-.51-2.36c2.58-1.16,6.07-1.74,7.87-4.12a3.81,3.81,0,0,0-1.89-6c-6.15-1.59-10.85,5.05-11.36,10.4-.71.72-1.4,1.44-2.15,2.11a3,3,0,0,1-1.62.94c-1.37,0-1.38-1.26-1.21-2.23.48-2.72,1.51-5.37,1.63-8.16,0-1.2-.31-3.09-1.52-3.7-.9-.46-1.72.15-2.26.85-1.91,2.49-2.41,6.3-2.54,9.33-1.12,1.13-1.93,2.38-3.38,3.15a5.09,5.09,0,0,1-3.73.58c-2.27-.76-2.11-3.39-2.11-5.34,2.1-2.72,4.53-5.13,6.76-7.73,1.81-2.13,4.61-5.49,3.2-8.49-1.24-2.65-5.18-1.73-7.14-.54-2.7,1.63-4.43,4.5-5.66,7.32a29.81,29.81,0,0,0-2.39,11.18c-1.73,2-4.09,3.72-6.78,3.87a4.53,4.53,0,0,1-3.5-1,3.35,3.35,0,0,1-.51-2.36c2.58-1.16,6.06-1.74,7.86-4.12a3.81,3.81,0,0,0-1.88-6c-6.13-1.58-10.81,5-11.36,10.32-.68,1-2.14,2.71-3.26,1.2-1-1.35-1-3.33-1.49-4.87-.37-1.13-1.19-2.85-2.68-2.49s-2.39,2.33-2.73,3.59c1.42,1.58,2.73,3.19,1.83,5.44a2.12,2.12,0,0,1-3.79.4c-1-1.57-.76-4-.6-5.77a23.67,23.67,0,0,1,1.64-6.88c2.93-.2,6.23-.64,8.71-2.36,2.18-1.51,3.33-4.65,1.45-6.89s-5.64-1.92-8-.45a17.59,17.59,0,0,0-5.8,6.93,16.22,16.22,0,0,0-3.26-.82c-.83-.06-.37,1.06-.11,1.38a6.27,6.27,0,0,0,2.37,1.47,28.34,28.34,0,0,0-2.39,8.24c-.28,2.32-.4,5,1.11,7,2.88,3.72,10.5,3.56,12.38-1.09a4.35,4.35,0,0,0,5,0c1.22,3.14,4.66,3.69,7.64,3.45,3.34-.27,6.72-1.65,8.6-4.57A6.85,6.85,0,0,0,110.77,75a8.57,8.57,0,0,0,8.38-3.94c.32,1.9,1.19,3.92,3.38,4,2.58.13,4.9-1.43,6.52-3.32,1.39,3.36,5.25,3.7,8.41,3.29,3.32-.43,6.92-2.19,8.3-5.43a15,15,0,0,0,1.66,4.64,1.7,1.7,0,0,0,2.19.87c2.65-.7,4.75-3.44,6.33-5.49a5.19,5.19,0,0,0,7,1.54c1.16,4.37,6.55,4.45,10.12,3.59A10.81,10.81,0,0,0,178.24,72a7.5,7.5,0,0,0,1.87-3C180.26,68.57,180.84,66.38,179.88,66.38Zm-8.81-5.85c1.25,0,1.37,1.13.76,2-.76,1.12-2.33,1.73-3.42,2.46C168.9,62,169.79,60.53,171.07,60.53Zm-34.11,0c1.25,0,1.37,1.13.76,2-.76,1.12-2.33,1.73-3.43,2.46C134.79,62,135.67,60.53,137,60.53Zm-24.37-6.81c.54-.91,1.38-2.37,2.54-2.62,1.49-.32.78,1.87.41,2.52A26.21,26.21,0,0,1,113,56.94a44.68,44.68,0,0,0-2.77,3.78A21.23,21.23,0,0,1,112.59,53.72ZM96.66,60.53c1.26,0,1.37,1.13.76,2C96.67,63.67,95.09,64.28,94,65,94.49,62,95.38,60.53,96.66,60.53ZM81,52.43c.9-.85,3.23-2.44,3.29-.07-.13,2.64-4.06,3.53-6.06,3.88A15.14,15.14,0,0,1,81,52.43Z"/>
    <path id="e-3" data-name="e" class="cls-1" d="M156.42,103.05c0-3.14-1.6-6.16-4.84-6.9a7.09,7.09,0,0,0-8,3.62,8.87,8.87,0,0,0,.44,8.49c1.71,2.48,4.91,3.32,7.78,2.87,1.3-.21,3.71-.72,4.35-2a1.56,1.56,0,0,0-.43-1.94c-.6-.38-1.33,0-1.87.32a6.67,6.67,0,0,1-5.16.61c-1.56-.6-2.12-2.18-2.26-3.73h8.27C155.62,104.34,156.42,104.22,156.42,103.05Zm-10-.72c.2-2,1.28-3.64,3.4-3.72s3.32,1.66,3.39,3.72Z"/>
    <path id="g-2" data-name="g" class="cls-1" d="M111.66,96c-1.58,0-1.86,1.23-1.86,2.52-1.42-2.66-5.1-3.18-7.66-2s-3.71,4-3.71,6.71a7.19,7.19,0,0,0,3.72,6.68c2.56,1.22,6.23.69,7.65-2a9.9,9.9,0,0,1-.32,3.8c-.76,1.84-2.89,2.12-4.65,1.9a15.5,15.5,0,0,1-3.4-1.09c-1.05-.38-2.12-.15-2.07,1.21.09,2.19,3.91,2.68,5.52,2.79,2.22.15,4.76-.08,6.54-1.58a6.89,6.89,0,0,0,2.11-5.4c0-2.13,0-4.27,0-6.4V98.81C113.53,97.5,113.43,96,111.66,96ZM108.8,106.5a3.88,3.88,0,0,1-5.76-.2,5.45,5.45,0,0,1,.17-6.25,3.87,3.87,0,0,1,5.75.2A5.51,5.51,0,0,1,108.8,106.5Z"/>
    <path id="tt-2" data-name="tt" class="cls-1" d="M70.62,108.39c-1.09-.08-2.25-.15-2.68-1.35a7.24,7.24,0,0,1-.16-2.37V99.15c1.26,0,4.23.53,4.23-1.41s-3-1.41-4.23-1.41c0-1.61.54-4.52-1.87-4.53S64,94.71,64,96.33c-1.09,0-2.93-.3-3.14,1.16-.24-1.66-3-1.16-4.18-1.16,0-1.61.54-4.52-1.86-4.53S53,94.71,53,96.33c-1.17,0-3.18-.28-3.18,1.41s2,1.41,3.18,1.41v5.44c0,2.18.13,4.52,2.24,5.74a7.66,7.66,0,0,0,3.56.82,2.29,2.29,0,0,0,2.08-.67,1.32,1.32,0,0,0-.42-1.88c-1-.57-2.33.07-3.2-.94a3.4,3.4,0,0,1-.51-2.36V99.15c1.19,0,3.94.5,4.18-1.16.21,1.46,2,1.16,3.14,1.16v4a18.46,18.46,0,0,0,.19,4.27c.53,2.25,2.37,3.36,4.57,3.6a4.3,4.3,0,0,0,2.75-.24C72.85,110,71.88,108.47,70.62,108.39Z"/>
    <path id="e-4" data-name="e" class="cls-1" d="M48.88,103.05c0-3.14-1.61-6.16-4.85-6.9a7.09,7.09,0,0,0-8,3.62,8.87,8.87,0,0,0,.44,8.49c1.71,2.48,4.91,3.32,7.78,2.87,1.3-.21,3.71-.72,4.35-2a1.56,1.56,0,0,0-.43-1.94c-.6-.38-1.33,0-1.88.32a6.64,6.64,0,0,1-5.15.61c-1.56-.6-2.12-2.18-2.25-3.73h8.26C48.07,104.34,48.88,104.22,48.88,103.05Zm-10-.72c.19-2,1.27-3.64,3.39-3.72s3.32,1.66,3.38,3.72Z"/>
    <path id="dot-3" data-name="dot" class="cls-1" d="M75.93,89.37a2,2,0,1,0,0,4A2,2,0,1,0,75.93,89.37Z"/>
    <path id="i" class="cls-1" d="M75.93,96c-2.55,0-1.85,3.65-1.85,5.32v7.33c0,.92,0,1.89,1,2.33a1.91,1.91,0,0,0,2.76-1.91c0-2.26,0-4.53,0-6.8V98.5C77.83,97.23,77.55,96,75.93,96Z"/>
  </g>
  <path id="Apostrophe3" class="cls-1" d="M100.36,22.68c-2.37,0-5.08-.62-5.94-3.12-1-2.88.24-6.46,1.6-9a19,19,0,0,1,7.2-7.79,11.27,11.27,0,0,1,4.19-1.31c1.32-.13,3.71-.15,4.54,1.11,1.1,1.69-.86,3-2.08,3.74-1.8,1-3.56,1.94-4.31,4A6.46,6.46,0,0,1,108,17.62C106.94,20.6,103.43,22.68,100.36,22.68Zm22.08-13.2c3.7,2.4,3.39,8,.58,11a9.94,9.94,0,0,1-6,2.95c-2.11.24-4.77-.13-6-2.08s-.82-4.52-.37-6.53a19.09,19.09,0,0,1,3-6.66C116.2,4.33,120,.85,124.84.61a5.72,5.72,0,0,1,3.67.81,2.05,2.05,0,0,1,0,2.84c-.89,1-2.39,1.52-3.51,2.25A5.87,5.87,0,0,0,122.44,9.48Z"/>
</svg>
