<svg id="Quote1" xmlns="http://www.w3.org/2000/svg" viewBox="0 0 202 164">
  <defs>
    <style>
      .cls-1 {
        fill: #09aaa4;
      }
    </style>
  </defs>
  <title>Quote1</title>
  <path id="PENCIL." class="cls-1" d="M43.71,142.59c0-3.24,5-4.31,7.42-4.53,3-.26,6.54,1.5,6.12,5-.49,5-6.11,7.75-10.65,7.75,0,2.28.28,4.55.48,6.82.09,1.1.19,2.2.22,3.31,0,.8.2,1.79-.74,2.08l-.74-.71a29.69,29.69,0,0,0-.43-3.63c-.2-1.58-.39-3.15-.57-4.72-.4-3.39-.75-6.78-1.11-10.16Zm2.07,1.34a18.73,18.73,0,0,0,.78,5.56A15.79,15.79,0,0,0,52.94,147c1.66-1.15,3.67-3.24,2.66-5.45C53.73,137.44,45.78,139.55,45.78,143.93ZM60.92,143c1.59-2.29,4.82-2.94,7.4-3.27a60.24,60.24,0,0,1,7.94-.3h.36c.11.66,0,1.2-.67,1.44s-1.49-.19-2.19,0c-3.35.34-6.68,1.45-10,2.12-1.24.46-.72,2.44-.62,3.46.16,1.47.47,2.93.62,4.4a2.23,2.23,0,0,0,.55,0h.56c2.28,0,4.43-.93,6.72-.93v1.37a19.51,19.51,0,0,0-3.8.51c-.48.1-3.33.49-3.33,1.16v7.72c4.65,0,9.27-.7,13.92-.7,0,.89-1.09,1.29-1.82,1.41l-.67.11a22.76,22.76,0,0,1-2.86.33c-1.08.14-2.17.26-3.26.37-2.24.24-4.48.51-6.72.71a1.28,1.28,0,0,1-.33,0C62.74,156.34,62.5,149.57,60.92,143Zm23.85-2.12c0,.41,0,.83,0,1.24v1.21c0,6.49.74,12.95.74,19.44l-1.34-.07c-.21-4.09-.6-8.18-.94-12.26a87.73,87.73,0,0,1-.62-12.12c0-1.43,2.38-1.24,2.9-.3l13.36,21.56c0-4-.32-7.92-.35-11.89,0-3.67,0-7.58,1.24-11.08.52-.18,1.45-.52,1.45.3v.41a22.36,22.36,0,0,0-.67,5.6c-.13,2.09-.22,4.19-.28,6.28-.15,4.56-.16,9.12-.13,13.69L99,163Zm20.59,12.47c0-3.88,1.48-8.5,4.28-11.28a5.94,5.94,0,0,1,5.18-1.9c2.14.42,3,2.64,3,4.61-1.86,0-1.85-2.52-3.38-3.11s-3.31.58-4.26,1.77c-2.17,2.71-2.78,6.87-2.78,10.24-.39,3.26.52,7.58,4.45,7.87,2.94,0,6-1.57,8.57-2.86v1.45a6.1,6.1,0,0,0-1.57.59c-.69.26-1.39.5-2.08.74-1.41.49-2.8,1-4.21,1.49a6.05,6.05,0,0,1-5.37-2.44C105.69,158.54,105.36,155.82,105.36,153.39Zm19.22-16.48a1,1,0,0,1,1.08-1H126c.27,4.64.53,9.29.65,13.94q.07,3.48.09,7c0,1.95.33,3.89.33,5.82l-1.59.3c-.42-8.52-.4-17.06-.93-25.57Zm8.49,1.15,1.41,23.53a129,129,0,0,0,13.44-1.22l.14,1.22a45.53,45.53,0,0,0-4.78.59l-2.67.3c-1.56.17-3.12.39-4.68.52l-.52,0h-.67c-1.87,0-2.25-3.37-2.45-4.69a59.17,59.17,0,0,1-.47-7c-.06-2.34,0-4.68,0-7a48,48,0,0,0-.15-6.23Zm20.07,23.53c-.57-2.13,4.15-2.19,3.57,0a2.22,2.22,0,0,1-1.19,1.34C154.58,163.39,153.4,162.5,153.14,161.59Z"/>
  <path id="WRITTENIN" class="cls-1" d="M22.15,104.64c-1,3.75-2.11,7.48-3.23,11.21-.19,1-.89,2.38-1.41.74L11.8,90.91c.48,0,1-.25,1.45,0s.6.94.7,1.45l4.27,19.26,2.86-9.28a1,1,0,0,1,1.07-.74A26.39,26.39,0,0,1,25.67,107a43.52,43.52,0,0,0,3.24,5.31,6.59,6.59,0,0,0,2.15,2.15c-.23-7.46-1-15.18.63-22.53.22-.75.94-.55,1.56-.55,0,2.06-.25,4.14-.33,6.2s-.15,4.23-.21,6.34c-.12,4.7-.18,9.4-.24,14.1C28,114.47,25.26,109.3,22.15,104.64Zm30.69,13.43c-.71-3.17-1.24-6.68-3.22-9.36a4.49,4.49,0,0,0-3.8-2.1c-.84,0-4.38.15-4.38,1.48v9.43c-.41,0-1.78-.34-1.78-.89V98.11c-1.23.2-1.67,1.8-1.78,2.86-.45,0-1.09-.67-1.28-1a2,2,0,0,1,.15-1.79,7,7,0,0,1,2.63-2.72A14,14,0,0,1,47.13,93c1.2,0,2.61,0,3.52.94a4,4,0,0,1,.85,3.3c-.29,2.86-2.43,5.34-4.38,7.29a12.79,12.79,0,0,1,5.29,5.77c1.05,2.46,1.06,5.23,1.84,7.77ZM46.6,94.47c-1.4,0-5.16.14-5.16,2.23v9.42c3.05,0,6-3.36,7.44-5.73.72-1.18,1.47-2.69,1.14-4.12C49.64,94.64,48,94.47,46.6,94.47Zm13.21-2.56a1,1,0,0,1,1.07-1h.37c.28,4.64.54,9.29.65,13.94q.09,3.48.09,7c0,2,.34,3.89.34,5.82l-1.6.3c-.41-8.52-.39-17.06-.92-25.57Zm6.3,5.94.59-1.93c.28-.28,1.63-.2,2-.24l2.75-.28c2-.19,4-.37,5.93-.59h2.34c1.23,0,1.56.62,1.56,1.78l-6.76.78a101.46,101.46,0,0,0,.57,11.56c.16,1.88.34,3.75.43,5.63a11.75,11.75,0,0,1,.08,3c-.2.82-1.11.7-1.78.48a48.51,48.51,0,0,1-.67-7.9l-.22-3.72c-.11-1.76-.23-3.52-.34-5.29,0-.74-.08-1.47-.13-2.21a12.38,12.38,0,0,1-.16-1.51Zm17.25,0L84,95.92c.28-.28,1.63-.2,2-.24l2.75-.28c2-.19,4-.37,5.93-.59H97c1.23,0,1.56.62,1.56,1.78l-6.76.78a101.46,101.46,0,0,0,.57,11.56c.16,1.88.34,3.75.43,5.63a11.75,11.75,0,0,1,.08,3c-.2.82-1.11.7-1.78.48a48.51,48.51,0,0,1-.67-7.9l-.22-3.72c-.11-1.76-.23-3.52-.34-5.29,0-.74-.08-1.47-.13-2.21a12.38,12.38,0,0,1-.16-1.51ZM101,98c1.59-2.29,4.82-2.94,7.4-3.27a60.24,60.24,0,0,1,7.94-.3h.35c.12.66,0,1.2-.67,1.44s-1.48-.19-2.18,0c-3.36.34-6.68,1.45-10,2.12-1.24.46-.72,2.44-.62,3.46.16,1.47.47,2.93.62,4.4a2.23,2.23,0,0,0,.55,0H105c2.27,0,4.43-.93,6.72-.93v1.37a19.41,19.41,0,0,0-3.8.51c-.48.1-3.33.49-3.33,1.16v7.72c4.65,0,9.27-.7,13.92-.7,0,.89-1.09,1.29-1.82,1.41l-.67.11a22.76,22.76,0,0,1-2.86.33c-1.08.14-2.17.26-3.26.37-2.24.24-4.48.51-6.72.71a1.28,1.28,0,0,1-.33,0C102.84,111.34,102.6,104.57,101,98Zm23.85-2.12c0,.41,0,.83,0,1.24v1.21c0,6.49.74,12.95.74,19.44l-1.34-.07c-.21-4.09-.6-8.18-.94-12.26a87.73,87.73,0,0,1-.62-12.12c0-1.43,2.38-1.24,2.9-.3l13.36,21.56c0-4-.32-7.92-.36-11.89,0-3.67,0-7.58,1.25-11.08.51-.18,1.45-.52,1.45.3v.41a22.36,22.36,0,0,0-.67,5.6c-.13,2.09-.22,4.19-.28,6.28-.15,4.56-.16,9.12-.13,13.69l-1.08.07Zm37.88-4a1,1,0,0,1,1.08-1h.37c.27,4.64.53,9.29.65,13.94q.08,3.48.09,7c0,2,.33,3.89.33,5.82l-1.59.3c-.42-8.52-.4-17.06-.93-25.57Zm8.86,4c0,.41,0,.83,0,1.24v1.21c0,6.49.74,12.95.74,19.44l-1.34-.07c-.21-4.09-.6-8.18-.94-12.26a87.73,87.73,0,0,1-.62-12.12c0-1.43,2.38-1.24,2.9-.3l13.36,21.56c0-4-.32-7.92-.35-11.89,0-3.67,0-7.58,1.24-11.08.52-.18,1.45-.52,1.45.3v.41a22.36,22.36,0,0,0-.67,5.6c-.13,2.09-.22,4.19-.28,6.28-.15,4.56-.16,9.12-.13,13.69l-1.08.07Z"/>
  <path id="EVERYTHINGIS" class="cls-1" d="M.93,53c1.59-2.29,4.83-2.94,7.4-3.27a60.32,60.32,0,0,1,8-.3h.35c.12.66,0,1.2-.67,1.44s-1.48-.19-2.19,0c-3.35.34-6.68,1.45-10,2.12-1.24.46-.72,2.44-.61,3.46.15,1.47.46,2.93.61,4.4a2.38,2.38,0,0,0,.56,0H4.9c2.28,0,4.44-.93,6.72-.93v1.37a19.41,19.41,0,0,0-3.79.51c-.48.1-3.33.49-3.33,1.16v7.72c4.64,0,9.26-.7,13.91-.7,0,.89-1.08,1.29-1.82,1.41l-.66.11a23,23,0,0,1-2.86.33c-1.09.14-2.18.26-3.26.37-2.24.24-4.48.51-6.72.71a1.37,1.37,0,0,1-.34,0C2.75,66.34,2.52,59.57.93,53ZM19.64,48.8l1.11-1.11,11.91,21,4.08-22.08h1.19l-4,25.64-.89.93ZM39.27,53c1.59-2.29,4.82-2.94,7.4-3.27a60.24,60.24,0,0,1,7.94-.3H55c.12.66,0,1.2-.67,1.44s-1.48-.19-2.18,0c-3.36.34-6.68,1.45-10,2.12-1.24.46-.72,2.44-.62,3.46.16,1.47.47,2.93.62,4.4a2.23,2.23,0,0,0,.55,0h.56c2.27,0,4.43-.93,6.72-.93v1.37a19.41,19.41,0,0,0-3.8.51c-.48.1-3.33.49-3.33,1.16v7.72c4.65,0,9.27-.7,13.92-.7,0,.89-1.09,1.29-1.82,1.41l-.67.11a22.76,22.76,0,0,1-2.86.33c-1.08.14-2.17.26-3.26.37-2.24.24-4.48.51-6.72.71a1.28,1.28,0,0,1-.33,0C41.09,66.34,40.85,59.57,39.27,53Zm33.95,20C72.52,69.9,72,66.39,70,63.71a4.5,4.5,0,0,0-3.8-2.1c-.84,0-4.38.15-4.38,1.48v9.43c-.41,0-1.78-.34-1.78-.89V53.11c-1.23.2-1.68,1.8-1.78,2.86-.46,0-1.09-.67-1.28-1a2,2,0,0,1,.15-1.79,7,7,0,0,1,2.63-2.72A14,14,0,0,1,67.52,48c1.2,0,2.61,0,3.52.94a4,4,0,0,1,.85,3.3c-.29,2.86-2.43,5.34-4.38,7.29A12.9,12.9,0,0,1,72.8,65.3c1,2.46,1.06,5.23,1.83,7.77ZM67,49.47c-1.4,0-5.16.14-5.16,2.23v9.42c3,0,6-3.36,7.44-5.73.72-1.18,1.46-2.69,1.13-4.12C70,49.64,68.4,49.47,67,49.47ZM87.51,60.9c-1.76-2.58-3.84-5-5.75-7.46-1.78-2.3-3.87-4.79-4.94-7.53l.74-.67a60.09,60.09,0,0,1,5.33,6.58,52.94,52.94,0,0,0,5.36,6.93c.55-2.57.86-5.19,1.34-7.77.44-2.39.91-5.11,2.22-7.19a.32.32,0,0,1,.17,0h.21c.34,0,1.24.22,1,.74a27.27,27.27,0,0,0-1.79,6.21c-.5,2.48-.87,5-1.19,7.48s-.6,4.94-.78,7.42a29.26,29.26,0,0,0,0,6.68c-.22,1.17-.9,1.08-2,1.08Zm6.12-8,.6-1.93c.27-.28,1.62-.2,2-.24L99,50.4c2-.19,4-.37,5.93-.59h2.34c1.24,0,1.56.62,1.56,1.78l-6.75.78a99.22,99.22,0,0,0,.57,11.56c.15,1.88.33,3.75.43,5.63a11.75,11.75,0,0,1,.07,3c-.19.82-1.11.7-1.78.48a49.65,49.65,0,0,1-.67-7.9l-.22-3.72c-.1-1.76-.22-3.52-.33-5.29,0-.74-.09-1.47-.14-2.21,0-.38-.2-1.3-.16-1.51Zm15,12.69c0-6.56.17-13.1.78-19.63h1.07V60.16h8.09c-.11-4-.15-7.94-.15-11.91v-3.9c.5,0,1.67.25,1.67.89V73l-1.15-.23c-.27,0-.29-7.56-.29-8.31V63.09c0-.59,0-1.27,0-2l-8.13,1.45-.07,10.57h-1.78Zm14-18.63a1,1,0,0,1,1.07-1h.37c.28,4.64.54,9.29.65,13.94.06,2.32.08,4.64.09,7,0,2,.34,3.89.34,5.82l-1.6.3c-.41-8.52-.39-17.06-.92-25.57Zm5.86,4c0,.41,0,.83,0,1.24v1.21c0,6.49.74,12.95.74,19.44l-1.33-.07c-.22-4.09-.6-8.18-.95-12.26a89.31,89.31,0,0,1-.61-12.12c0-1.43,2.37-1.24,2.89-.3l13.36,21.56c0-4-.32-7.92-.35-11.89,0-3.67,0-7.58,1.24-11.08.52-.18,1.45-.52,1.45.3v.41a22.83,22.83,0,0,0-.67,5.6c-.12,2.09-.21,4.19-.28,6.28-.14,4.56-.16,9.12-.13,13.69l-1.07.07ZM163.4,70.55a17.74,17.74,0,0,1-11.91,2,6.32,6.32,0,0,1-4.37-3.1,9.94,9.94,0,0,1-.74-5.65C147.12,56,152.64,46,161.9,48.85a4.69,4.69,0,0,1,2.49,1.56c.38.52,1,2.07-.1,2a8,8,0,0,1-2.77-1.32c-.66-.37-2-1.4-2.76-1.2-3.45,0-6.22,2.31-7.89,5.18a19.09,19.09,0,0,0-2.58,9.44c-.59,4,2.23,6.48,6,6.81,3.13.28,8.11-1,8.48-4.8,0-4.77-6-4.79-9.35-5.24v-.66c0-.48,7.76-1.36,8.57-1.45l.18,0,.41,0h1.52c.24,0,.47,0,.71,0,.34,4.74.42,9.5.74,14.25V74c0,.58,0,1.15,0,1.73v.58h-.78Zm0-7.83V60.46a4.23,4.23,0,0,0-2.15.81Zm17.81-15.81a1,1,0,0,1,1.08-1h.37c.27,4.64.53,9.29.65,13.94q.08,3.48.09,7c0,2,.33,3.89.33,5.82l-1.59.3c-.42-8.52-.4-17.06-.93-25.57Zm5.16,23.27c.34-.82,1-.6,1.41,0,0,.32,2,.72,2.33.79a27.43,27.43,0,0,0,3,.56,5.76,5.76,0,0,0,5.17-1.71A6.29,6.29,0,0,0,199.92,65c-.09-1.14-.52-4.55-2.16-4.55a35.47,35.47,0,0,1-7.91.25c-2.26-.25-4.87-1-5-3.7,0-3.23,3.09-6.19,6.13-6.79s7.57.88,7.57,4.46c-1.67,0-3-1.59-4.35-2.42a4.08,4.08,0,0,0-4.46,0A5.73,5.73,0,0,0,187,56c-.21,1.2-.09,3.13,1.5,3.13h10c2.24,0,2.75,3.71,2.88,5.32a8.55,8.55,0,0,1-1.58,6.13A7,7,0,0,1,194.9,73C192.33,73.25,187.81,72.66,186.37,70.18Z"/>
  <path id="WEBELIEVE" class="cls-1" d="M21.87,14.64c-1,3.75-2.11,7.48-3.23,11.21-.19,1-.89,2.38-1.41.74L11.52.91c.48,0,1-.25,1.45,0s.6.94.7,1.45l4.27,19.26,2.86-9.28a1,1,0,0,1,1.07-.74A26.39,26.39,0,0,1,25.39,17a43.52,43.52,0,0,0,3.24,5.31,6.59,6.59,0,0,0,2.15,2.15c-.23-7.46-1-15.18.63-22.53.22-.75.94-.55,1.56-.55,0,2.06-.25,4.14-.33,6.2s-.15,4.23-.21,6.34c-.12,4.7-.18,9.4-.24,14.1C27.72,24.47,25,19.3,21.87,14.64ZM34.3,8c1.59-2.29,4.83-2.94,7.4-3.27a60.32,60.32,0,0,1,7.95-.3H50c.12.66,0,1.2-.67,1.44s-1.48-.19-2.19,0c-3.35.34-6.68,1.45-10,2.12-1.24.46-.71,2.44-.61,3.46.15,1.47.46,2.93.61,4.4a2.38,2.38,0,0,0,.56,0h.56c2.27,0,4.43-.93,6.71-.93v1.37a19.41,19.41,0,0,0-3.79.51c-.48.1-3.33.49-3.33,1.16v7.72c4.65,0,9.26-.7,13.91-.7,0,.89-1.08,1.29-1.82,1.41l-.66.11a22.76,22.76,0,0,1-2.86.33c-1.09.14-2.17.26-3.26.37-2.24.24-4.48.51-6.72.71a1.37,1.37,0,0,1-.34,0C36.12,21.34,35.89,14.57,34.3,8ZM68.56,9.48A2,2,0,0,1,67.44,8c.22-2.41,2.92-2.9,4.9-2.9h1.89c2.22,0,5,.15,5.86,2.64.75,2.29,0,4.76-1.25,6.71,2.37.76,4.66,1.48,5,4.27a8,8,0,0,1-2.4,6.9A8.56,8.56,0,0,1,74.84,28a15.35,15.35,0,0,1-3.46-.91c-.74-.27-2.82-.95-2.82-1.95ZM71,18.05c.16,2-.9,4.2-.28,6.16.55,1.75,2.6,2.23,4.21,2.42a8.19,8.19,0,0,0,5.7-2.39c1.38-1.4,2.36-3.67,1.6-5.62s-3.07-2.16-4.94-2.11A16.91,16.91,0,0,0,71,18.05Zm-.75-3.85c0,.83.14,1.63,1.08,1.74a6.46,6.46,0,0,0,2.93-.61,7.82,7.82,0,0,0,4.2-3.76,3.91,3.91,0,0,0,.39-2.39,2.62,2.62,0,0,0-2-1.62A15.77,15.77,0,0,0,71,7.37c-.49.49-.46,2.22-.51,2.84l-.11,1.44C70.33,12.5,70.26,13.35,70.26,14.2ZM85.44,8C87,5.75,90.27,5.1,92.84,4.77a60.32,60.32,0,0,1,8-.3h.35c.12.66,0,1.2-.67,1.44s-1.49-.19-2.19,0c-3.35.34-6.68,1.45-10,2.12-1.24.46-.72,2.44-.61,3.46.15,1.47.46,2.93.61,4.4a2.33,2.33,0,0,0,.56,0h.55c2.28,0,4.43-.93,6.72-.93v1.37a19.31,19.31,0,0,0-3.79.51c-.48.1-3.34.49-3.34,1.16v7.72c4.65,0,9.27-.7,13.92-.7,0,.89-1.09,1.29-1.82,1.41l-.67.11a22.6,22.6,0,0,1-2.85.33c-1.09.14-2.18.26-3.27.37-2.24.24-4.47.51-6.72.71a1.22,1.22,0,0,1-.33,0C87.26,21.34,87,14.57,85.44,8Zm20.49-5,1.41,23.53a128.85,128.85,0,0,0,13.43-1.22l.15,1.22a45.72,45.72,0,0,0-4.79.59l-2.67.3c-1.56.17-3.11.39-4.68.52l-.52,0h-.66c-1.88,0-2.26-3.37-2.46-4.69a59.17,59.17,0,0,1-.47-7c-.06-2.34,0-4.68,0-7a48,48,0,0,0-.14-6.23Zm16.4-1.15a1,1,0,0,1,1.07-1h.38c.27,4.64.53,9.29.64,13.94q.09,3.48.09,7c0,2,.34,3.89.34,5.82l-1.59.3c-.42-8.52-.4-17.06-.93-25.57ZM126,8c1.59-2.29,4.82-2.94,7.4-3.27a60.24,60.24,0,0,1,7.94-.3h.36c.12.66,0,1.2-.67,1.44s-1.49-.19-2.19,0c-3.35.34-6.68,1.45-10,2.12-1.24.46-.72,2.44-.61,3.46.15,1.47.46,2.93.61,4.4a2.28,2.28,0,0,0,.55,0H130c2.28,0,4.43-.93,6.72-.93v1.37a19.51,19.51,0,0,0-3.8.51c-.48.1-3.33.49-3.33,1.16v7.72c4.65,0,9.27-.7,13.92-.7,0,.89-1.09,1.29-1.82,1.41l-.67.11a22.55,22.55,0,0,1-2.86.33c-1.08.14-2.17.26-3.26.37-2.24.24-4.48.51-6.72.71a1.22,1.22,0,0,1-.33,0C127.86,21.34,127.62,14.57,126,8Zm18.7-4.24,1.12-1.11,11.91,21,4.08-22.08H163l-4,25.64-.89.93ZM164.37,8c1.59-2.29,4.83-2.94,7.4-3.27a60.32,60.32,0,0,1,7.95-.3h.35c.12.66,0,1.2-.67,1.44s-1.48-.19-2.19,0c-3.35.34-6.68,1.45-10,2.12-1.24.46-.72,2.44-.61,3.46.15,1.47.46,2.93.61,4.4a2.33,2.33,0,0,0,.56,0h.55c2.28,0,4.44-.93,6.72-.93v1.37a19.41,19.41,0,0,0-3.79.51c-.48.1-3.33.49-3.33,1.16v7.72c4.64,0,9.26-.7,13.91-.7,0,.89-1.08,1.29-1.82,1.41l-.66.11a23,23,0,0,1-2.86.33c-1.09.14-2.18.26-3.27.37-2.23.24-4.47.51-6.71.71a1.37,1.37,0,0,1-.34,0C166.19,21.34,166,14.57,164.37,8Z"/>
</svg>
